<svg xmlns="http://www.w3.org/2000/svg" viewBox="0 0 400 400" width="400" height="400"
     style="width: 100%; height: 100%; transform: translate3d(0px, 0px, 0px);" class="yt-animation-bodymovin"
     preserveAspectRatio="xMidYMid meet">
    <defs>
        <clipPath id="__lottie_element_2">
            <rect width="400" height="400" x="0" y="0"></rect>
        </clipPath>
        <radialGradient id="__lottie_element_59" spreadMethod="pad" gradientUnits="userSpaceOnUse"
                        cx="-0.013000000268220901" cy="0.01899999938905239" r="163.45592053216288"
                        fx="-0.013000000268220901" fy="0.01899999938905239">
            <stop offset="0%" stop-color="rgb(0,142,255)"></stop>
            <stop offset="14%" stop-color="rgb(0,142,255)"></stop>
            <stop offset="28%" stop-color="rgb(0,142,255)"></stop>
            <stop offset="35%" stop-color="rgb(0,142,255)"></stop>
            <stop offset="42%" stop-color="rgb(0,142,255)"></stop>
            <stop offset="47%" stop-color="rgb(0,142,255)"></stop>
            <stop offset="52%" stop-color="rgb(0,142,255)"></stop>
            <stop offset="56%" stop-color="rgb(0,142,255)"></stop>
            <stop offset="61%" stop-color="rgb(0,142,255)"></stop>
            <stop offset="65%" stop-color="rgb(0,142,255)"></stop>
            <stop offset="70%" stop-color="rgb(0,142,255)"></stop>
            <stop offset="74%" stop-color="rgb(0,142,255)"></stop>
            <stop offset="77%" stop-color="rgb(0,142,255)"></stop>
            <stop offset="81%" stop-color="rgb(0,142,255)"></stop>
            <stop offset="84%" stop-color="rgb(0,142,255)"></stop>
        </radialGradient>
        <mask id="__lottie_element_61">
            <path fill="url(https://fe-pet-projects.youtrack.cloud/gantt-chartsasdf#__lottie_element_60)"
                  d=" M0,-163.63999938964844 C90.3759994506836,-163.63999938964844 163.63999938964844,-90.3759994506836 163.63999938964844,0 C163.63999938964844,90.3759994506836 90.3759994506836,163.63999938964844 0,163.63999938964844 C-90.3759994506836,163.63999938964844 -163.63999938964844,90.3759994506836 -163.63999938964844,0 C-163.63999938964844,-90.3759994506836 -90.3759994506836,-163.63999938964844 0,-163.63999938964844z"></path>
        </mask>
        <radialGradient id="__lottie_element_60" spreadMethod="pad" gradientUnits="userSpaceOnUse"
                        cx="-0.013000000268220901" cy="0.01899999938905239" r="163.45592053216288"
                        fx="-0.013000000268220901" fy="0.01899999938905239">
            <stop stop-color="rgb(255,255,255)" offset="0%" stop-opacity="1"></stop>
            <stop stop-color="rgb(255,255,255)" offset="14%" stop-opacity="0.9950000047683716"></stop>
            <stop stop-color="rgb(255,255,255)" offset="28%" stop-opacity="0.9900000095367432"></stop>
            <stop stop-color="rgb(255,255,255)" offset="35%" stop-opacity="0.9750000238418579"></stop>
            <stop stop-color="rgb(255,255,255)" offset="42%" stop-opacity="0.9599999785423279"></stop>
            <stop stop-color="rgb(255,255,255)" offset="47%" stop-opacity="0.9350000023841858"></stop>
            <stop stop-color="rgb(255,255,255)" offset="52%" stop-opacity="0.9100000262260437"></stop>
            <stop stop-color="rgb(255,255,255)" offset="56%" stop-opacity="0.875"></stop>
            <stop stop-color="rgb(255,255,255)" offset="61%" stop-opacity="0.8399999737739563"></stop>
            <stop stop-color="rgb(255,255,255)" offset="65%" stop-opacity="0.7900000214576721"></stop>
            <stop stop-color="rgb(255,255,255)" offset="70%" stop-opacity="0.7400000095367432"></stop>
            <stop stop-color="rgb(255,255,255)" offset="74%" stop-opacity="0.6800000071525574"></stop>
            <stop stop-color="rgb(255,255,255)" offset="77%" stop-opacity="0.6200000047683716"></stop>
            <stop stop-color="rgb(255,255,255)" offset="81%" stop-opacity="0.550000011920929"></stop>
            <stop stop-color="rgb(255,255,255)" offset="84%" stop-opacity="0.47999998927116394"></stop>
            <stop stop-color="rgb(255,255,255)" offset="92%" stop-opacity="0.23999999463558197"></stop>
            <stop stop-color="rgb(255,255,255)" offset="100%" stop-opacity="0"></stop>
        </radialGradient>
    </defs>
    <g clip-path="url(https://fe-pet-projects.youtrack.cloud/gantt-chartsasdf#__lottie_element_2)">
        <g style="display: block;" transform="matrix(1,0,0,1,204.80999755859375,185.5500030517578)" opacity="1">
            <g opacity="1" transform="matrix(1,0,0,1,0,0)">
                <path fill="url(https://fe-pet-projects.youtrack.cloud/gantt-chartsasdf#__lottie_element_59)"
                      mask="url(https://fe-pet-projects.youtrack.cloud/gantt-chartsasdf#__lottie_element_61)"
                      fill-opacity="1"
                      d="M0 0 M0,-163.63999938964844 C90.3759994506836,-163.63999938964844 163.63999938964844,-90.3759994506836 163.63999938964844,0 C163.63999938964844,90.3759994506836 90.3759994506836,163.63999938964844 0,163.63999938964844 C-90.3759994506836,163.63999938964844 -163.63999938964844,90.3759994506836 -163.63999938964844,0 C-163.63999938964844,-90.3759994506836 -90.3759994506836,-163.63999938964844 0,-163.63999938964844z"></path>
            </g>
        </g>
        <g style="display: block;" transform="matrix(1,0,0,1,200,200)" opacity="1">
            <g opacity="1" transform="matrix(1,0,0,1,0,0)">
                <path stroke-linecap="round" stroke-linejoin="miter" fill-opacity="0" stroke-miterlimit="10"
                      stroke-dasharray=" 13 8" stroke-dashoffset="0" stroke="rgb(255,255,255)" stroke-opacity="1"
                      stroke-width="2"
                      d=" M-125.38999938964844,-91.75 C-125.38999938964844,-91.75 -191.5500030517578,-13 -191.5500030517578,-13 C-191.5500030517578,-13 -191.5500030517578,33 -191.5500030517578,33 C-191.5500030517578,33 -123.63999938964844,33 -123.63999938964844,33 C-123.63999938964844,33 -123.63999938964844,62.83000183105469 -123.63999938964844,62.83000183105469 C-123.63999938964844,62.83000183105469 -82.63999938964844,62.83000183105469 -82.63999938964844,62.83000183105469 C-82.63999938964844,62.83000183105469 -82.63999938964844,-91.75 -82.63999938964844,-91.75 C-82.63999938964844,-91.75 -125.38999938964844,-91.75 -125.38999938964844,-91.75z M-123.63999938964844,1.4600000381469727 C-123.63999938964844,1.4600000381469727 -160.49000549316406,1.4600000381469727 -160.49000549316406,1.4600000381469727 C-160.49000549316406,1.4600000381469727 -123.63999938964844,-42.84000015258789 -123.63999938964844,-42.84000015258789 C-123.63999938964844,-42.84000015258789 -123.63999938964844,1.4600000381469727 -123.63999938964844,1.4600000381469727z"></path>
            </g>
        </g>
        <g style="display: block;" transform="matrix(1,0,0,1,200,200)" opacity="1">
            <g opacity="1" transform="matrix(1,0,0,1,0,0)">
                <path stroke-linecap="round" stroke-linejoin="miter" fill-opacity="0" stroke-miterlimit="10"
                      stroke-dasharray=" 13 8" stroke-dashoffset="0" stroke="rgb(255,255,255)" stroke-opacity="1"
                      stroke-width="2"
                      d=" M148.77999877929688,-91.76000213623047 C148.77999877929688,-91.76000213623047 82.62999725341797,-13 82.62999725341797,-13 C82.62999725341797,-13 82.62999725341797,33 82.62999725341797,33 C82.62999725341797,33 150.5399932861328,33 150.5399932861328,33 C150.5399932861328,33 150.5399932861328,62.81999969482422 150.5399932861328,62.81999969482422 C150.5399932861328,62.81999969482422 191.5399932861328,62.81999969482422 191.5399932861328,62.81999969482422 C191.5399932861328,62.81999969482422 191.5399932861328,-91.76000213623047 191.5399932861328,-91.76000213623047 C191.5399932861328,-91.76000213623047 148.77999877929688,-91.76000213623047 148.77999877929688,-91.76000213623047z M150.5399932861328,1.4500000476837158 C150.5399932861328,1.4500000476837158 113.69000244140625,1.4500000476837158 113.69000244140625,1.4500000476837158 C113.69000244140625,1.4500000476837158 150.5399932861328,-42.849998474121094 150.5399932861328,-42.849998474121094 C150.5399932861328,-42.849998474121094 150.5399932861328,1.4500000476837158 150.5399932861328,1.4500000476837158z"></path>
            </g>
        </g>
        <g style="display: block;" transform="matrix(1,0,0,1,206.26199340820312,262.05999755859375)" opacity="1">
            <g opacity="1" transform="matrix(1,0,0,1,0,0)">
                <path fill="rgb(0,0,0)" fill-opacity="1"
                      d=" M109.73799896240234,74.37000274658203 C109.73799896240234,74.37000274658203 109.73799896240234,4.75 109.73799896240234,4.75 C109.73799896240234,-38.25 78.8479995727539,-74.37000274658203 35.97800064086914,-74.37000274658203 C35.97800064086914,-74.37000274658203 -35.8120002746582,-74.37000274658203 -35.8120002746582,-74.37000274658203 C-74.76799774169922,-74.33899688720703 -107.02799987792969,-44.111000061035156 -109.59200286865234,-5.239999771118164 C-109.79199981689453,-1.9600000381469727 -109.78199768066406,71 -109.59200286865234,74.37000274658203 C-109.59200286865234,74.37000274658203 109.73799896240234,74.37000274658203 109.73799896240234,74.37000274658203z"></path>
                <path stroke-linecap="butt" stroke-linejoin="miter" fill-opacity="0" stroke-miterlimit="10"
                      stroke="rgb(0,0,0)" stroke-opacity="1" stroke-width="1"
                      d=" M109.73799896240234,74.37000274658203 C109.73799896240234,74.37000274658203 109.73799896240234,4.75 109.73799896240234,4.75 C109.73799896240234,-38.25 78.8479995727539,-74.37000274658203 35.97800064086914,-74.37000274658203 C35.97800064086914,-74.37000274658203 -35.8120002746582,-74.37000274658203 -35.8120002746582,-74.37000274658203 C-74.76799774169922,-74.33899688720703 -107.02799987792969,-44.111000061035156 -109.59200286865234,-5.239999771118164 C-109.79199981689453,-1.9600000381469727 -109.78199768066406,71 -109.59200286865234,74.37000274658203 C-109.59200286865234,74.37000274658203 109.73799896240234,74.37000274658203 109.73799896240234,74.37000274658203z"></path>
            </g>
        </g>
        <g style="display: block;" transform="matrix(1,0,0,1,211.22500610351562,189.02999877929688)" opacity="1">
            <g opacity="1" transform="matrix(1,0,0,1,0,0)">
                <path fill="rgb(255,255,255)" fill-opacity="1"
                      d=" M-137.02499389648438,-81.81999969482422 C-137.02499389648438,-81.81999969482422 0.004999999888241291,81.81999969482422 0.004999999888241291,81.81999969482422 C0.004999999888241291,81.81999969482422 137.02499389648438,-81.81999969482422 137.02499389648438,-81.81999969482422 C137.02499389648438,-81.81999969482422 -137.02499389648438,-81.81999969482422 -137.02499389648438,-81.81999969482422z"></path>
            </g>
        </g>
        <g style="display: block;" transform="matrix(1,0,0,1,214.55599975585938,128.6663818359375)" opacity="1">
            <g opacity="1" transform="matrix(1,0,0,1,0,0)">
                <path fill="rgb(255,255,255)" fill-opacity="1"
                      d=" M26.79400062561035,-12.597000122070312 C25.823999404907227,-12.593999862670898 24.86199951171875,-12.418000221252441 23.95400047302246,-12.07699966430664 C17.31399917602539,-25.429000854492188 1.1069999933242798,-30.868999481201172 -12.244999885559082,-24.229000091552734 C-17.448999404907227,-21.641000747680664 -21.679000854492188,-17.441999435424805 -24.305999755859375,-12.256999969482422 C-25.05500030517578,-12.482999801635742 -25.833999633789062,-12.597000122070312 -26.615999221801758,-12.597000122070312 C-31.12299919128418,-12.696000099182129 -34.856998443603516,-9.12399959564209 -34.95600128173828,-4.617000102996826 C-35.05500030517578,-0.10999999940395355 -31.482999801635742,3.624000072479248 -26.97599983215332,3.7230000495910645 C-24.951000213623047,18.496999740600586 -11.333999633789062,28.832000732421875 3.440000057220459,26.80699920654297 C15.442000389099121,25.16200065612793 24.878999710083008,15.725000381469727 26.52400016784668,3.7230000495910645 C26.52400016784668,3.7230000495910645 26.79400062561035,3.7230000495910645 26.79400062561035,3.7230000495910645 C31.305999755859375,3.7200000286102295 34.96099853515625,0.05900000035762787 34.95800018310547,-4.453000068664551 C34.95500183105469,-8.961000442504883 31.302000045776367,-12.61400032043457 26.79400062561035,-12.616999626159668 C26.79400062561035,-12.616999626159668 26.79400062561035,-12.597000122070312 26.79400062561035,-12.597000122070312z"></path>
                <path stroke-linecap="round" stroke-linejoin="round" fill-opacity="0" stroke="rgb(0,0,0)"
                      stroke-opacity="1" stroke-width="1"
                      d=" M26.79400062561035,-12.597000122070312 C25.823999404907227,-12.593999862670898 24.86199951171875,-12.418000221252441 23.95400047302246,-12.07699966430664 C17.31399917602539,-25.429000854492188 1.1069999933242798,-30.868999481201172 -12.244999885559082,-24.229000091552734 C-17.448999404907227,-21.641000747680664 -21.679000854492188,-17.441999435424805 -24.305999755859375,-12.256999969482422 C-25.05500030517578,-12.482999801635742 -25.833999633789062,-12.597000122070312 -26.615999221801758,-12.597000122070312 C-31.12299919128418,-12.696000099182129 -34.856998443603516,-9.12399959564209 -34.95600128173828,-4.617000102996826 C-35.05500030517578,-0.10999999940395355 -31.482999801635742,3.624000072479248 -26.97599983215332,3.7230000495910645 C-24.951000213623047,18.496999740600586 -11.333999633789062,28.832000732421875 3.440000057220459,26.80699920654297 C15.442000389099121,25.16200065612793 24.878999710083008,15.725000381469727 26.52400016784668,3.7230000495910645 C26.52400016784668,3.7230000495910645 26.79400062561035,3.7230000495910645 26.79400062561035,3.7230000495910645 C31.305999755859375,3.7200000286102295 34.96099853515625,0.05900000035762787 34.95800018310547,-4.453000068664551 C34.95500183105469,-8.961000442504883 31.302000045776367,-12.61400032043457 26.79400062561035,-12.616999626159668 C26.79400062561035,-12.616999626159668 26.79400062561035,-12.597000122070312 26.79400062561035,-12.597000122070312z"></path>
            </g>
        </g>
        <g style="display: block;" transform="matrix(1,0,0,1,256.7929992675781,61.904388427734375)" opacity="1">
            <g opacity="1" transform="matrix(1,0,0,1,0,0)">
                <path fill="rgb(0,0,0)" fill-opacity="1"
                      d=" M23.976999282836914,-58.974998474121094 C16.347000122070312,-52.80500030517578 20.406999588012695,-44.89500045776367 11.82699966430664,-35.54499816894531 C2.056999921798706,-24.885000228881836 -2.263000011444092,-28.854999542236328 -12.032999992370605,-18.19499969482422 C-21.80299949645996,-7.534999847412109 -17.472999572753906,-3.615000009536743 -27.243000030517578,7.025000095367432 C-37.01300048828125,17.665000915527344 -44.24300003051758,15.024999618530273 -53.9630012512207,25.704999923706055 C-62.68299865722656,35.21500015258789 -66.43299865722656,42.14500045776367 -66.06300354003906,53.45500183105469 C-66.06300354003906,53.45500183105469 -65.86299896240234,53.255001068115234 -65.86299896240234,53.255001068115234 C-59.7869987487793,42.641998291015625 -47.32400131225586,37.45600128173828 -35.51300048828125,40.625 C-31.645000457763672,41.611000061035156 -28.058000564575195,43.47999954223633 -25.033000946044922,46.084999084472656 C-22.222999572753906,48.459999084472656 -19.927000045776367,51.382999420166016 -18.283000946044922,54.67499923706055 C-14.258000373840332,53.15999984741211 -9.75,55.04600143432617 -8.003000259399414,58.974998474121094 C0.05700000002980232,51.494998931884766 4.436999797821045,53.8849983215332 13.307000160217285,44.20500183105469 C23.07699966430664,33.55500030517578 18.756999969482422,29.584999084472656 28.527000427246094,18.934999465942383 C38.297000885009766,8.28499984741211 42.617000579833984,12.244999885559082 52.37699890136719,1.5950000286102295 C61.5369987487793,-8.404999732971191 61.707000732421875,-9.265000343322754 66.08699798583984,-20.405000686645508 C66.08699798583984,-20.405000686645508 23.976999282836914,-58.974998474121094 23.976999282836914,-58.974998474121094z"></path>
            </g>
        </g>
        <g style="display: block;" transform="matrix(1,0,0,1,205.42999267578125,129.62237548828125)" opacity="1">
            <g opacity="1" transform="matrix(1,0,0,1,0,0)">
                <path fill="rgb(0,0,0)" fill-opacity="1"
                      d=" M1.850000023841858,-2.005000114440918 C1.850000023841858,-2.005000114440918 1.850000023841858,1.9950000047683716 1.850000023841858,1.9950000047683716 C1.850000023841858,3.0169999599456787 1.0219999551773071,3.8450000286102295 0,3.8450000286102295 C0,3.8450000286102295 0,3.8450000286102295 0,3.8450000286102295 C0,3.8450000286102295 0,3.8450000286102295 0,3.8450000286102295 C-1.0219999551773071,3.8450000286102295 -1.850000023841858,3.0169999599456787 -1.850000023841858,1.9950000047683716 C-1.850000023841858,1.9950000047683716 -1.850000023841858,1.9950000047683716 -1.850000023841858,1.9950000047683716 C-1.850000023841858,1.9950000047683716 -1.850000023841858,-2.005000114440918 -1.850000023841858,-2.005000114440918 C-1.850000023841858,-3.0209999084472656 -1.0260000228881836,-3.8450000286102295 -0.009999999776482582,-3.8450000286102295 C-0.007000000216066837,-3.8450000286102295 -0.003000000026077032,-3.8450000286102295 0,-3.8450000286102295 C0,-3.8450000286102295 0,-3.8450000286102295 0,-3.8450000286102295 C1.0180000066757202,-3.8450000286102295 1.843999981880188,-3.0230000019073486 1.850000023841858,-2.005000114440918z"></path>
            </g>
        </g>
        <g style="display: block;" transform="matrix(1,0,0,1,221.72999572753906,129.49636840820312)" opacity="1">
            <g opacity="1" transform="matrix(1,0,0,1,0,0)">
                <path fill="rgb(0,0,0)" fill-opacity="1"
                      d=" M1.850000023841858,-2.005000114440918 C1.850000023841858,-2.005000114440918 1.850000023841858,1.9950000047683716 1.850000023841858,1.9950000047683716 C1.850000023841858,3.0169999599456787 1.0219999551773071,3.8450000286102295 0,3.8450000286102295 C0,3.8450000286102295 0,3.8450000286102295 0,3.8450000286102295 C0,3.8450000286102295 0,3.8450000286102295 0,3.8450000286102295 C-1.0219999551773071,3.8450000286102295 -1.850000023841858,3.0169999599456787 -1.850000023841858,1.9950000047683716 C-1.850000023841858,1.9950000047683716 -1.850000023841858,1.9950000047683716 -1.850000023841858,1.9950000047683716 C-1.850000023841858,1.9950000047683716 -1.850000023841858,-2.005000114440918 -1.850000023841858,-2.005000114440918 C-1.850000023841858,-3.0209999084472656 -1.0260000228881836,-3.8450000286102295 -0.009999999776482582,-3.8450000286102295 C-0.007000000216066837,-3.8450000286102295 -0.003000000026077032,-3.8450000286102295 0,-3.8450000286102295 C0,-3.8450000286102295 0,-3.8450000286102295 0,-3.8450000286102295 C1.0180000066757202,-3.8450000286102295 1.843999981880188,-3.0230000019073486 1.850000023841858,-2.005000114440918z"></path>
            </g>
        </g>
        <g style="display: block;" transform="matrix(1,0,0,1,211.22500610351562,189.02999877929688)" opacity="0.5">
            <g opacity="1" transform="matrix(1,0,0,1,0,0)">
                <path fill="rgb(255,255,255)" fill-opacity="1"
                      d=" M-137.02499389648438,-81.81999969482422 C-137.02499389648438,-81.81999969482422 0.004999999888241291,81.81999969482422 0.004999999888241291,81.81999969482422 C0.004999999888241291,81.81999969482422 137.02499389648438,-81.81999969482422 137.02499389648438,-81.81999969482422 C137.02499389648438,-81.81999969482422 -137.02499389648438,-81.81999969482422 -137.02499389648438,-81.81999969482422z"></path>
            </g>
        </g>
        <g style="display: block;" transform="matrix(1,0,0,1,200,200)" opacity="1">
            <g opacity="1" transform="matrix(1,0,0,1,0,0)">
                <path fill="rgb(255,255,255)" fill-opacity="1"
                      d=" M14.789999961853027,22.3799991607666 C14.789999961853027,22.3799991607666 -25.639999389648438,62.79999923706055 -25.639999389648438,62.79999923706055 C-25.639999389648438,62.79999923706055 -49.43000030517578,62.79999923706055 -49.43000030517578,62.79999923706055 C-49.43000030517578,62.79999923706055 -49.43000030517578,158.8699951171875 -49.43000030517578,158.8699951171875 C-49.43000030517578,158.8699951171875 46.5,158.8699951171875 46.5,158.8699951171875 C59.755001068115234,158.8699951171875 70.5,148.125 70.5,134.8699951171875 C70.58300018310547,130.64700317382812 69.47000122070312,126.48699951171875 67.29000091552734,122.87000274658203 C67.29000091552734,122.87000274658203 67.29000091552734,122.87000274658203 67.29000091552734,122.87000274658203 C67.29000091552734,122.87000274658203 67.69999694824219,122.0999984741211 67.69999694824219,122.0999984741211 C69.53199768066406,118.63999938964844 70.49400329589844,114.78500366210938 70.5,110.87000274658203 C70.58300018310547,106.64700317382812 69.47000122070312,102.48699951171875 67.29000091552734,98.87000274658203 C67.29000091552734,98.87000274658203 67.29000091552734,98.87000274658203 67.29000091552734,98.87000274658203 C67.29000091552734,98.87000274658203 67.69999694824219,98.0999984741211 67.69999694824219,98.0999984741211 C69.53199768066406,94.63999938964844 70.49400329589844,90.78500366210938 70.5,86.87000274658203 C70.58300018310547,82.64700317382812 69.47000122070312,78.48699951171875 67.29000091552734,74.87000274658203 C67.29000091552734,74.87000274658203 67.29000091552734,74.87000274658203 67.29000091552734,74.87000274658203 C67.29000091552734,74.87000274658203 67.69999694824219,74.0999984741211 67.69999694824219,74.0999984741211 C73.9020004272461,62.38600158691406 69.43299865722656,47.861000061035156 57.71900177001953,41.659000396728516 C54.262001037597656,39.82899856567383 50.4109992980957,38.87200164794922 46.5,38.869998931884766 C46.5,38.869998931884766 32.189998626708984,38.869998931884766 32.189998626708984,38.869998931884766 C32.189998626708984,38.869998931884766 32.34000015258789,38.70000076293945 32.34000015258789,38.70000076293945 C36.650001525878906,33.665000915527344 36.0629997253418,26.09000015258789 31.027999877929688,21.780000686645508 C26.288000106811523,17.722000122070312 19.229000091552734,17.975000381469727 14.789999961853027,22.360000610351562 C14.789999961853027,22.360000610351562 14.789999961853027,22.3799991607666 14.789999961853027,22.3799991607666z M23.229999542236328,62.88999938964844 C23.229999542236328,62.88999938964844 8.229999542236328,62.88999938964844 8.229999542236328,62.88999938964844 C8.229999542236328,62.88999938964844 13.359999656677246,57.77000045776367 13.359999656677246,57.77000045776367 C13.359999656677246,57.77000045776367 13.359999656677246,57.720001220703125 13.359999656677246,57.720001220703125 C15.597000122070312,60.97999954223633 19.29599952697754,62.92900085449219 23.25,62.93000030517578 C23.25,62.93000030517578 23.25,62.93000030517578 23.25,62.93000030517578"></path>
            </g>
        </g>
        <g style="display: block;" transform="matrix(1,0,0,1,210.53500366210938,288.8599853515625)" opacity="1">
            <g opacity="1" transform="matrix(1,0,0,1,0,0)">
                <path stroke-linecap="round" stroke-linejoin="round" fill-opacity="0" stroke="rgb(0,0,0)"
                      stroke-opacity="1" stroke-width="1"
                      d=" M21.725000381469727,-50.040000915527344 C25.930999755859375,-54.790000915527344 25.711999893188477,-61.99399948120117 21.225000381469727,-66.4800033569336 C21.225000381469727,-66.4800033569336 21.225000381469727,-66.4800033569336 21.225000381469727,-66.4800033569336 C16.547000885009766,-71.17400360107422 8.947999954223633,-71.18800354003906 4.254000186920166,-66.51000213623047 C4.24399995803833,-66.5 4.235000133514404,-66.48999786376953 4.224999904632568,-66.4800033569336 C4.224999904632568,-66.4800033569336 -36.20500183105469,-26.049999237060547 -36.20500183105469,-26.049999237060547 C-36.20500183105469,-26.049999237060547 -59.96500015258789,-26.049999237060547 -59.96500015258789,-26.049999237060547 C-59.96500015258789,-26.049999237060547 -59.96500015258789,70.01000213623047 -59.96500015258789,70.01000213623047 C-59.96500015258789,70.01000213623047 35.96500015258789,70.01000213623047 35.96500015258789,70.01000213623047 C49.220001220703125,70.01000213623047 59.96500015258789,59.26499938964844 59.96500015258789,46.0099983215332 C59.96500015258789,32.755001068115234 49.220001220703125,22.010000228881836 35.96500015258789,22.010000228881836 C35.96500015258789,22.010000228881836 12.694999694824219,22.010000228881836 12.694999694824219,22.010000228881836 C6.067999839782715,22.010000228881836 0.6949999928474426,27.382999420166016 0.6949999928474426,34.0099983215332 C0.6949999928474426,34.0099983215332 0.6949999928474426,34.0099983215332 0.6949999928474426,34.0099983215332 C0.6949999928474426,40.637001037597656 6.067999839782715,46.0099983215332 12.694999694824219,46.0099983215332 C12.694999694824219,46.0099983215332 35.96500015258789,46.0099983215332 35.96500015258789,46.0099983215332"></path>
            </g>
        </g>
        <g style="display: block;" transform="matrix(1,0,0,1,240.8699951171875,304.8699951171875)" opacity="1">
            <g opacity="1" transform="matrix(1,0,0,1,0,0)">
                <path stroke-linecap="round" stroke-linejoin="round" fill-opacity="0" stroke="rgb(0,0,0)"
                      stroke-opacity="1" stroke-width="1"
                      d=" M26.420000076293945,18 C33.047000885009766,6.520999908447266 29.114999771118164,-8.157999992370605 17.63599967956543,-14.78499984741211 C13.986000061035156,-16.892000198364258 9.845000267028809,-18.000999450683594 5.630000114440918,-18 C5.630000114440918,-18 -17.639999389648438,-18 -17.639999389648438,-18 C-24.267000198364258,-18 -29.639999389648438,-12.626999855041504 -29.639999389648438,-6 C-29.639999389648438,-6 -29.639999389648438,-6 -29.639999389648438,-6 C-29.639999389648438,0.6269999742507935 -24.267000198364258,6 -17.639999389648438,6 C-17.639999389648438,6 5.630000114440918,6 5.630000114440918,6"></path>
            </g>
        </g>
        <g style="display: block;" transform="matrix(1,0,0,1,240.8699951171875,280.8699951171875)" opacity="1">
            <g opacity="1" transform="matrix(1,0,0,1,0,0)">
                <path stroke-linecap="round" stroke-linejoin="round" fill-opacity="0" stroke="rgb(0,0,0)"
                      stroke-opacity="1" stroke-width="1"
                      d=" M26.420000076293945,18 C33.047000885009766,6.520999908447266 29.114999771118164,-8.157999992370605 17.63599967956543,-14.78499984741211 C13.986000061035156,-16.892000198364258 9.845000267028809,-18.000999450683594 5.630000114440918,-18 C5.630000114440918,-18 -17.639999389648438,-18 -17.639999389648438,-18 C-24.267000198364258,-18 -29.639999389648438,-12.626999855041504 -29.639999389648438,-6 C-29.639999389648438,-6 -29.639999389648438,-6 -29.639999389648438,-6 C-29.639999389648438,0.6269999742507935 -24.267000198364258,6 -17.639999389648438,6 C-17.639999389648438,6 5.630000114440918,6 5.630000114440918,6"></path>
            </g>
        </g>
        <g style="display: block;" transform="matrix(1,0,0,1,240.8699951171875,256.8699951171875)" opacity="1">
            <g opacity="1" transform="matrix(1,0,0,1,0,0)">
                <path stroke-linecap="round" stroke-linejoin="round" fill-opacity="0" stroke="rgb(0,0,0)"
                      stroke-opacity="1" stroke-width="1"
                      d=" M26.420000076293945,18 C33.047000885009766,6.520999908447266 29.114999771118164,-8.157999992370605 17.63599967956543,-14.78499984741211 C13.986000061035156,-16.892000198364258 9.845000267028809,-18.000999450683594 5.630000114440918,-18 C5.630000114440918,-18 -17.639999389648438,-18 -17.639999389648438,-18 C-24.267000198364258,-18 -29.639999389648438,-12.626999855041504 -29.639999389648438,-6 C-29.639999389648438,-6 -29.639999389648438,-6 -29.639999389648438,-6 C-29.639999389648438,0.6269999742507935 -24.267000198364258,6 -17.639999389648438,6 C-17.639999389648438,6 5.630000114440918,6 5.630000114440918,6"></path>
            </g>
        </g>
        <g style="display: block;" transform="matrix(1,0,0,1,200,200)" opacity="1">
            <g opacity="1" transform="matrix(1,0,0,1,0,0)">
                <path stroke-linecap="round" stroke-linejoin="round" fill-opacity="0" stroke="rgb(0,0,0)"
                      stroke-opacity="1" stroke-width="1"
                      d=" M-25.639999389648438,111 C-5.497000217437744,104.80000305175781 8.246000289916992,86.18599700927734 8.239999771118164,65.11000061035156 C8.239999771118164,64.37000274658203 8.239999771118164,63.63999938964844 8.239999771118164,62.90999984741211"></path>
            </g>
        </g>
        <g style="display: block;" transform="matrix(1,0,0,1,215.5800018310547,260.32000732421875)" opacity="1">
            <g opacity="1" transform="matrix(1,0,0,1,0,0)">
                <path stroke-linecap="round" stroke-linejoin="round" fill-opacity="0" stroke="rgb(0,0,0)"
                      stroke-opacity="1" stroke-width="1"
                      d=" M7.340000152587891,2.5799999237060547 C7.340000152587891,2.5799999237060547 -1.100000023841858,2.549999952316284 -1.100000023841858,2.549999952316284 C-1.100000023841858,2.549999952316284 -7.340000152587891,2.549999952316284 -7.340000152587891,2.549999952316284 C-7.340000152587891,2.549999952316284 -2.2100000381469727,-2.5799999237060547 -2.2100000381469727,-2.5799999237060547"></path>
            </g>
        </g>
        <g style="display: block;" transform="matrix(1,0,0,1,211.22999572753906,329.7650146484375)" opacity="1">
            <g opacity="1" transform="matrix(1,0,0,1,0,0)">
                <path fill="rgb(0,0,0)" fill-opacity="1"
                      d=" M18.649999618530273,4.775000095367432 C18.649999618530273,4.775000095367432 18.649999618530273,48.6150016784668 18.649999618530273,48.6150016784668 C18.649999618530273,58.915000915527344 10.300000190734863,67.26499938964844 0,67.26499938964844 C-10.300000190734863,67.26499938964844 -18.649999618530273,58.915000915527344 -18.649999618530273,48.6150016784668 C-18.649999618530273,48.6150016784668 -18.649999618530273,-29.584999084472656 -18.649999618530273,-29.584999084472656 C-8.654000282287598,-38.66699981689453 -2.9630000591278076,-51.54999923706055 -2.9800000190734863,-65.05500030517578 C-2.9800000190734863,-65.79499816894531 -2.9800000190734863,-66.53500366210938 -2.9800000190734863,-67.26499938964844 C-2.9800000190734863,-67.26499938964844 7.019999980926514,-67.26499938964844 7.019999980926514,-67.26499938964844 C7.019999980926514,-67.26499938964844 11.630000114440918,-67.26499938964844 11.630000114440918,-67.26499938964844 C11.656000137329102,-67.26000213623047 11.684000015258789,-67.26000213623047 11.710000038146973,-67.26499938964844 C11.710000038146973,-67.26499938964844 12.020000457763672,-67.26499938964844 12.020000457763672,-67.26499938964844 C5.39300012588501,-67.26499938964844 0.019999999552965164,-61.891998291015625 0.019999999552965164,-55.26499938964844 C0.019999999552965164,-48.63800048828125 5.39300012588501,-43.26499938964844 12.020000457763672,-43.26499938964844 C5.39300012588501,-43.26499938964844 0.019999999552965164,-37.891998291015625 0.019999999552965164,-31.264999389648438 C0.019999999552965164,-24.63800048828125 5.39300012588501,-19.264999389648438 12.020000457763672,-19.264999389648438 C5.39300012588501,-19.264999389648438 0.019999999552965164,-13.892000198364258 0.019999999552965164,-7.264999866485596 C0.019999999552965164,-0.6380000114440918 5.39300012588501,4.735000133514404 12.020000457763672,4.735000133514404 C12.020000457763672,4.735000133514404 18.649999618530273,4.775000095367432 18.649999618530273,4.775000095367432z"></path>
            </g>
        </g>
    </g>
</svg>
