<svg version="1.1" xmlns="http://www.w3.org/2000/svg" xmlns:xlink="http://www.w3.org/1999/xlink" x="0px" y="0px"
     viewBox="0 0 430 430" style="enable-background:new 0 0 430 430;" xml:space="preserve"><style type="text/css"> .st0{opacity:0;fill:var(--ring-popup-background-color);} .st1{opacity:4.975124e-03;fill:var(--ring-popup-background-color);} .st2{opacity:9.950249e-03;fill:#FDFEFF;} .st3{opacity:1.492537e-02;fill:#FDFEFF;} .st4{opacity:1.990050e-02;fill:#FCFEFF;} .st5{opacity:2.487562e-02;fill:#FBFDFF;} .st6{opacity:2.985075e-02;fill:#FAFDFF;} .st7{opacity:3.482587e-02;fill:#FAFDFF;} .st8{opacity:3.980099e-02;fill:#F9FDFF;} .st9{opacity:4.477612e-02;fill:#F8FCFF;} .st10{opacity:4.975124e-02;fill:#F7FCFF;} .st11{opacity:5.472637e-02;fill:#F6FCFF;} .st12{opacity:5.970149e-02;fill:#F6FBFF;} .st13{opacity:6.467662e-02;fill:#F5FBFF;} .st14{opacity:6.965174e-02;fill:#F4FBFF;} .st15{opacity:7.462686e-02;fill:#F3FAFF;} .st16{opacity:7.960199e-02;fill:#F3FAFF;} .st17{opacity:8.457711e-02;fill:#F2FAFF;} .st18{opacity:8.955224e-02;fill:#F1FAFF;} .st19{opacity:9.452736e-02;fill:#F0F9FF;} .st20{opacity:9.950249e-02;fill:#EFF9FF;} .st21{opacity:0.1045;fill:#EFF9FF;} .st22{opacity:0.1095;fill:#EEF8FF;} .st23{opacity:0.1144;fill:#EDF8FF;} .st24{opacity:0.1194;fill:#ECF8FF;} .st25{opacity:0.1244;fill:#ECF7FF;} .st26{opacity:0.1294;fill:#EBF7FF;} .st27{opacity:0.1343;fill:#EAF7FF;} .st28{opacity:0.1393;fill:#E9F7FF;} .st29{opacity:0.1443;fill:#E8F6FF;} .st30{opacity:0.1493;fill:#E8F6FF;} .st31{opacity:0.1542;fill:#E7F6FF;} .st32{opacity:0.1592;fill:#E6F5FF;} .st33{opacity:0.1642;fill:#E5F5FF;} .st34{opacity:0.1692;fill:#E5F5FF;} .st35{opacity:0.1741;fill:#E4F4FF;} .st36{opacity:0.1791;fill:#E3F4FF;} .st37{opacity:0.1841;fill:#E2F4FF;} .st38{opacity:0.1891;fill:#E2F3FF;} .st39{opacity:0.194;fill:#E1F3FF;} .st40{opacity:0.199;fill:#E0F3FF;} .st41{opacity:0.204;fill:#DFF3FF;} .st42{opacity:0.209;fill:#DEF2FF;} .st43{opacity:0.2139;fill:#DEF2FF;} .st44{opacity:0.2189;fill:#DDF2FF;} .st45{opacity:0.2239;fill:#DCF1FF;} .st46{opacity:0.2289;fill:#DBF1FF;} .st47{opacity:0.2338;fill:#DBF1FF;} .st48{opacity:0.2388;fill:#DAF0FF;} .st49{opacity:0.2438;fill:#D9F0FF;} .st50{opacity:0.2488;fill:#D8F0FF;} .st51{opacity:0.2537;fill:#D7F0FF;} .st52{opacity:0.2587;fill:#D7EFFF;} .st53{opacity:0.2637;fill:#D6EFFF;} .st54{opacity:0.2687;fill:#D5EFFF;} .st55{opacity:0.2736;fill:#D4EEFF;} .st56{opacity:0.2786;fill:#D4EEFF;} .st57{opacity:0.2836;fill:#D3EEFF;} .st58{opacity:0.2886;fill:#D2EDFF;} .st59{opacity:0.2935;fill:#D1EDFF;} .st60{opacity:0.2985;fill:#D0EDFF;} .st61{opacity:0.3035;fill:#D0ECFF;} .st62{opacity:0.3085;fill:#CFECFF;} .st63{opacity:0.3134;fill:#CEECFF;} .st64{opacity:0.3184;fill:#CDECFF;} .st65{opacity:0.3234;fill:#CDEBFF;} .st66{opacity:0.3284;fill:#CCEBFF;} .st67{opacity:0.3333;fill:#CBEBFF;} .st68{opacity:0.3383;fill:#CAEAFF;} .st69{opacity:0.3433;fill:#C9EAFF;} .st70{opacity:0.3483;fill:#C9EAFF;} .st71{opacity:0.3532;fill:#C8E9FF;} .st72{opacity:0.3582;fill:#C7E9FF;} .st73{opacity:0.3632;fill:#C6E9FF;} .st74{opacity:0.3682;fill:#C6E9FF;} .st75{opacity:0.3731;fill:#C5E8FF;} .st76{opacity:0.3781;fill:#C4E8FF;} .st77{opacity:0.3831;fill:#C3E8FF;} .st78{opacity:0.3881;fill:#C2E7FF;} .st79{opacity:0.393;fill:#C2E7FF;} .st80{opacity:0.398;fill:#C1E7FF;} .st81{opacity:0.403;fill:#C0E6FF;} .st82{opacity:0.408;fill:#BFE6FF;} .st83{opacity:0.4129;fill:#BFE6FF;} .st84{opacity:0.4179;fill:#BEE6FF;} .st85{opacity:0.4229;fill:#BDE5FF;} .st86{opacity:0.4279;fill:#BCE5FF;} .st87{opacity:0.4328;fill:#BBE5FF;} .st88{opacity:0.4378;fill:#BBE4FF;} .st89{opacity:0.4428;fill:#BAE4FF;} .st90{opacity:0.4478;fill:#B9E4FF;} .st91{opacity:0.4527;fill:#B8E3FF;} .st92{opacity:0.4577;fill:#B8E3FF;} .st93{opacity:0.4627;fill:#B7E3FF;} .st94{opacity:0.4677;fill:#B6E2FF;} .st95{opacity:0.4726;fill:#B5E2FF;} .st96{opacity:0.4776;fill:#B4E2FF;} .st97{opacity:0.4826;fill:#B4E2FF;} .st98{opacity:0.4876;fill:#B3E1FF;} .st99{opacity:0.4925;fill:#B2E1FF;} .st100{opacity:0.4975;fill:#B1E1FF;} .st101{opacity:0.5025;fill:#B1E0FF;} .st102{opacity:0.5075;fill:#B0E0FF;} .st103{opacity:0.5124;fill:#AFE0FF;} .st104{opacity:0.5174;fill:#AEDFFF;} .st105{opacity:0.5224;fill:#AEDFFF;} .st106{opacity:0.5274;fill:#ADDFFF;} .st107{opacity:0.5323;fill:#ACDFFF;} .st108{opacity:0.5373;fill:#ABDEFF;} .st109{opacity:0.5423;fill:#AADEFF;} .st110{opacity:0.5473;fill:#AADEFF;} .st111{opacity:0.5522;fill:#A9DDFF;} .st112{opacity:0.5572;fill:#A8DDFF;} .st113{opacity:0.5622;fill:#A7DDFF;} .st114{opacity:0.5672;fill:#A7DCFF;} .st115{opacity:0.5721;fill:#A6DCFF;} .st116{opacity:0.5771;fill:#A5DCFF;} .st117{opacity:0.5821;fill:#A4DBFF;} .st118{opacity:0.5871;fill:#A3DBFF;} .st119{opacity:0.592;fill:#A3DBFF;} .st120{opacity:0.597;fill:#A2DBFF;} .st121{opacity:0.602;fill:#A1DAFF;} .st122{opacity:0.607;fill:#A0DAFF;} .st123{opacity:0.6119;fill:#A0DAFF;} .st124{opacity:0.6169;fill:#9FD9FF;} .st125{opacity:0.6219;fill:#9ED9FF;} .st126{opacity:0.6269;fill:#9DD9FF;} .st127{opacity:0.6318;fill:#9CD8FF;} .st128{opacity:0.6368;fill:#9CD8FF;} .st129{opacity:0.6418;fill:#9BD8FF;} .st130{opacity:0.6468;fill:#9AD8FF;} .st131{opacity:0.6517;fill:#99D7FF;} .st132{opacity:0.6567;fill:#99D7FF;} .st133{opacity:0.6617;fill:#98D7FF;} .st134{opacity:0.6667;fill:#97D6FF;} .st135{opacity:0.6716;fill:#96D6FF;} .st136{opacity:0.6766;fill:#95D6FF;} .st137{opacity:0.6816;fill:#95D5FF;} .st138{opacity:0.6866;fill:#94D5FF;} .st139{opacity:0.6915;fill:#93D5FF;} .st140{opacity:0.6965;fill:#92D5FF;} .st141{opacity:0.7015;fill:#92D4FF;} .st142{opacity:0.7065;fill:#91D4FF;} .st143{opacity:0.7114;fill:#90D4FF;} .st144{opacity:0.7164;fill:#8FD3FF;} .st145{opacity:0.7214;fill:#8ED3FF;} .st146{opacity:0.7264;fill:#8ED3FF;} .st147{opacity:0.7313;fill:#8DD2FF;} .st148{opacity:0.7363;fill:#8CD2FF;} .st149{opacity:0.7413;fill:#8BD2FF;} .st150{opacity:0.7463;fill:#8BD1FF;} .st151{opacity:0.7512;fill:#8AD1FF;} .st152{opacity:0.7562;fill:#89D1FF;} .st153{opacity:0.7612;fill:#88D1FF;} .st154{opacity:0.7662;fill:#87D0FF;} .st155{opacity:0.7711;fill:#87D0FF;} .st156{opacity:0.7761;fill:#86D0FF;} .st157{opacity:0.7811;fill:#85CFFF;} .st158{opacity:0.7861;fill:#84CFFF;} .st159{opacity:0.791;fill:#84CFFF;} .st160{opacity:0.796;fill:#83CEFF;} .st161{opacity:0.801;fill:#82CEFF;} .st162{opacity:0.806;fill:#81CEFF;} .st163{opacity:0.8109;fill:#80CEFF;} .st164{opacity:0.8159;fill:#80CDFF;} .st165{opacity:0.8209;fill:#7FCDFF;} .st166{opacity:0.8259;fill:#7ECDFF;} .st167{opacity:0.8308;fill:#7DCCFF;} .st168{opacity:0.8358;fill:#7DCCFF;} .st169{opacity:0.8408;fill:#7CCCFF;} .st170{opacity:0.8458;fill:#7BCBFF;} .st171{opacity:0.8507;fill:#7ACBFF;} .st172{opacity:0.8557;fill:#7ACBFF;} .st173{opacity:0.8607;fill:#79CAFF;} .st174{opacity:0.8657;fill:#78CAFF;} .st175{opacity:0.8706;fill:#77CAFF;} .st176{opacity:0.8756;fill:#76CAFF;} .st177{opacity:0.8806;fill:#76C9FF;} .st178{opacity:0.8856;fill:#75C9FF;} .st179{opacity:0.8905;fill:#74C9FF;} .st180{opacity:0.8955;fill:#73C8FF;} .st181{opacity:0.9005;fill:#73C8FF;} .st182{opacity:0.9055;fill:#72C8FF;} .st183{opacity:0.9104;fill:#71C7FF;} .st184{opacity:0.9154;fill:#70C7FF;} .st185{opacity:0.9204;fill:#6FC7FF;} .st186{opacity:0.9254;fill:#6FC7FF;} .st187{opacity:0.9303;fill:#6EC6FF;} .st188{opacity:0.9353;fill:#6DC6FF;} .st189{opacity:0.9403;fill:#6CC6FF;} .st190{opacity:0.9453;fill:#6CC5FF;} .st191{opacity:0.9502;fill:#6BC5FF;} .st192{opacity:0.9552;fill:#6AC5FF;} .st193{opacity:0.9602;fill:#69C4FF;} .st194{opacity:0.9652;fill:#68C4FF;} .st195{opacity:0.9701;fill:#68C4FF;} .st196{opacity:0.9751;fill:#67C4FF;} .st197{opacity:0.9801;fill:#66C3FF;} .st198{opacity:0.9851;fill:#65C3FF;} .st199{opacity:0.99;fill:#65C3FF;} .st200{opacity:0.995;fill:#64C2FF;} .st201{fill:#63C2FF;} .st202{fill:url(#SVGID_1_);} .st203{fill:url(#SVGID_2_);} .st204{fill:var(--ring-text-color);} .st205{fill:var(--ring-popup-background-color);} .st207{fill:url(#SVGID_3_);} .st208{clip-path:url(#SVGID_5_);} .st209{fill:url(#SVGID_6_);} .st210{fill:url(#SVGID_7_);} .st211{fill:none;stroke:var(--ring-text-color);stroke-miterlimit:10;} .st212{fill:none;stroke:var(--ring-text-color);stroke-linecap:round;stroke-miterlimit:10;} .st213{fill:url(#SVGID_8_);} .st214{clip-path:url(#SVGID_10_);} </style>
    <g id="Layer_3"></g>
    <g id="Layer_1"><g><path class="st0" d="M161.3,257.2l0-42.2l-1.9-6.3c10.2-49.5,50.1-89.9,103-98c68-10.5,131.5,36.1,142,104.1 c3.2,20.5,1.1,39.4-5.2,57.8l-20.2,0.2L215,272.9C203.8,262.6,163.7,272.3,161.3,257.2z"></path><path
            class="st1"
            d="M262.4,110.7c67.9-10.5,131.5,36.1,141.9,104c3.2,20.5,1.1,39.4-5.2,57.8l-20.2,0.2l-138.7,0.2 c0,0-25.2,0-25.3,0c-11.3-10.3-51.3-0.5-53.6-15.7l0-38c0,0,0-4.1,0-4.1c0,0-1.9-6.3-1.9-6.3C169.6,159.2,209.5,118.8,262.4,110.7 z"></path><path
            class="st2"
            d="M262.4,110.7c67.9-10.5,131.4,36.1,141.9,104c3.2,20.5,1.1,39.4-5.2,57.8l-20.2,0.2l-138.7,0.2 c-0.1,0-25.2,0-25.3,0c-11.3-10.2-51.2-0.4-53.6-15.7l0-38c0,0,0-4.1,0-4.1c0,0-1.9-6.3-1.9-6.3 C169.5,159.2,209.5,118.8,262.4,110.7z"></path><path
            class="st3"
            d="M262.3,110.7c67.9-10.4,131.3,36.1,141.8,104c3.2,20.5,1.1,39.5-5.2,57.8l-20.2,0.2l-138.6,0.2 c-0.1-0.1-25.1,0-25.2,0c-11.4-10.2-51.2-0.4-53.5-15.7l0-38c0,0,0-4.1,0-4.1c0-0.1-1.9-6.3-1.9-6.3 C169.5,159.2,209.5,118.9,262.3,110.7z"></path><path
            class="st4"
            d="M262.3,110.7c67.8-10.4,131.3,36.1,141.7,103.9c3.2,20.5,1.1,39.5-5.2,57.8l-20.2,0.2L240,272.9 c-0.2-0.1-25.1-0.1-25.2-0.1c-11.4-10.1-51.1-0.3-53.5-15.7l0-38c0,0,0-4.1,0-4.1c0-0.1-1.9-6.3-1.9-6.3 C169.5,159.2,209.4,118.9,262.3,110.7z"></path><path
            class="st5"
            d="M262.2,110.8c67.8-10.4,131.2,36.1,141.7,103.9c3.2,20.5,1,39.5-5.2,57.9l-20.2,0.2L240,272.9 c-0.2-0.1-25-0.1-25.2-0.1c-11.5-10.1-51-0.2-53.4-15.7l0-38c0,0,0-4.1,0-4.1c0-0.1-1.9-6.3-1.9-6.3 C169.5,159.2,209.4,118.9,262.2,110.8z"></path><path
            class="st6"
            d="M262.2,110.8c67.8-10.4,131.2,36,141.6,103.8c3.2,20.5,1,39.5-5.3,57.9l-20.2,0.2l-138.5,0.2 c-0.2-0.1-25-0.1-25.2-0.1c-11.5-10-51-0.2-53.4-15.7l0-38c0,0,0-4.1,0-4.1c0-0.1-1.9-6.3-1.9-6.3 C169.5,159.2,209.4,118.9,262.2,110.8z"></path><path
            class="st7"
            d="M262.1,110.8c67.7-10.4,131.1,36,141.5,103.8c3.2,20.5,1,39.5-5.3,57.9l-20.2,0.2l-138.4,0.2 c-0.3-0.1-24.9-0.1-25.2-0.1c-11.6-9.9-50.9-0.1-53.3-15.7l0-38c0,0,0-4.1,0-4.1c0-0.1-1.9-6.3-1.9-6.3 C169.5,159.2,209.4,118.9,262.1,110.8z"></path><path
            class="st8"
            d="M262.1,110.8c67.7-10.4,131.1,36,141.5,103.7c3.2,20.5,1,39.5-5.3,57.9l-20.1,0.2l-138.4,0.2 c-0.3-0.2-24.9-0.2-25.2-0.1c-11.6-9.9-50.8,0-53.3-15.6l0-37.9c0-0.1,0-4.1,0-4.1c0-0.1-1.9-6.3-1.9-6.3 C169.5,159.2,209.3,119,262.1,110.8z"></path><path
            class="st9"
            d="M262.1,110.9c67.7-10.4,131,36,141.4,103.7c3.2,20.6,1,39.6-5.3,57.9l-20.1,0.2l-138.3,0.2 c-0.4-0.2-24.8-0.2-25.2-0.2c-11.7-9.8-50.8,0.1-53.2-15.6l0-37.9c0-0.1,0-4.1,0-4.1c0-0.2-1.9-6.3-1.9-6.3 C169.5,159.3,209.3,119,262.1,110.9z"></path><path
            class="st10"
            d="M262,110.9c67.6-10.4,130.9,36,141.4,103.6c3.2,20.6,1,39.6-5.3,58l-20.1,0.2l-138.3,0.2 c-0.4-0.2-24.8-0.2-25.2-0.2c-11.7-9.8-50.7,0.1-53.1-15.6l0-37.9c0-0.1,0-4.1,0-4.1c0-0.2-1.9-6.3-1.9-6.3 C169.4,159.3,209.3,119,262,110.9z"></path><path
            class="st11"
            d="M262,110.9c67.6-10.4,130.9,36,141.3,103.6c3.2,20.6,1,39.6-5.3,58l-20.1,0.2l-138.2,0.2 c-0.4-0.2-24.8-0.2-25.1-0.2c-11.8-9.7-50.7,0.2-53.1-15.6l0-37.9c0-0.1,0-4.1,0-4.1c0-0.2-1.9-6.3-1.9-6.3 C169.4,159.3,209.2,119,262,110.9z"></path><path
            class="st12"
            d="M261.9,110.9c67.6-10.4,130.8,35.9,141.2,103.5c3.2,20.6,1,39.6-5.3,58l-20.1,0.2l-138.2,0.2 c-0.5-0.2-24.7-0.3-25.1-0.2c-11.8-9.6-50.6,0.3-53-15.6l0-37.9c0-0.1,0-4.1,0-4.1c0-0.2-1.9-6.3-1.9-6.3 C169.4,159.3,209.2,119.1,261.9,110.9z"></path><path
            class="st13"
            d="M261.9,111c67.6-10.4,130.8,35.9,141.2,103.5c3.2,20.6,1,39.6-5.4,58l-20.1,0.2l-138.1,0.2 c-0.5-0.3-24.7-0.3-25.1-0.2c-11.9-9.6-50.5,0.4-53-15.6l0-37.9c0-0.1,0-4.1,0-4.1c0-0.2-1.9-6.3-1.9-6.3 C169.4,159.3,209.2,119.1,261.9,111z"></path><path
            class="st14"
            d="M261.8,111c67.5-10.4,130.7,35.9,141.1,103.4c3.2,20.6,1,39.7-5.4,58l-20.1,0.2l-138.1,0.2 c-0.5-0.3-24.6-0.3-25.1-0.3c-11.9-9.5-50.5,0.4-52.9-15.6l0-37.9c0-0.1,0-4,0-4.1c0-0.2-1.9-6.3-1.9-6.3 C169.4,159.3,209.2,119.1,261.8,111z"></path><path
            class="st15"
            d="M261.8,111c67.5-10.4,130.6,35.9,141,103.4c3.2,20.6,1,39.7-5.4,58.1l-20.1,0.2l-138,0.2 c-0.6-0.3-24.6-0.3-25.1-0.3c-12-9.5-50.4,0.5-52.9-15.6l0-37.9c0-0.1,0-4,0-4.1c-0.1-0.3-1.9-6.3-1.9-6.3 C169.4,159.3,209.1,119.1,261.8,111z"></path><path
            class="st16"
            d="M261.8,111c67.5-10.4,130.6,35.9,141,103.4c3.2,20.6,1,39.7-5.4,58.1l-20.1,0.2l-138,0.2 c-0.6-0.3-24.5-0.4-25.1-0.3c-12-9.4-50.4,0.6-52.8-15.6l0-37.8c0-0.1,0-4,0-4.1c-0.1-0.3-1.9-6.3-1.9-6.3 C169.4,159.4,209.1,119.1,261.8,111z"></path><path
            class="st17"
            d="M261.7,111.1c67.4-10.4,130.5,35.9,140.9,103.3c3.2,20.6,1,39.7-5.4,58.1l-20.1,0.2l-137.9,0.2 c-0.7-0.3-24.5-0.4-25.1-0.3c-12.1-9.4-50.3,0.7-52.8-15.6l0-37.8c0-0.1,0-4,0-4.1c-0.1-0.3-1.9-6.3-1.9-6.3 C169.4,159.4,209.1,119.2,261.7,111.1z"></path><path
            class="st18"
            d="M261.7,111.1c67.4-10.4,130.5,35.9,140.8,103.3c3.2,20.6,1,39.7-5.4,58.1l-20.1,0.2l-137.9,0.2 c-0.7-0.4-24.4-0.4-25.1-0.4c-12.1-9.3-50.2,0.7-52.7-15.5l0-37.8c0-0.1,0-4,0-4.1c-0.1-0.3-1.9-6.3-1.9-6.3 C169.4,159.4,209.1,119.2,261.7,111.1z"></path><path
            class="st19"
            d="M261.6,111.1C329,100.7,392,147,402.4,214.3c3.2,20.6,1,39.7-5.4,58.1l-20.1,0.2l-137.8,0.2 c-0.7-0.4-24.4-0.4-25.1-0.4c-12.2-9.2-50.2,0.8-52.7-15.5l0-37.8c0-0.1,0-4-0.1-4.1c-0.1-0.3-1.9-6.3-1.9-6.3 C169.3,159.4,209,119.2,261.6,111.1z"></path><path
            class="st20"
            d="M261.6,111.1c67.3-10.4,130.3,35.8,140.7,103.2c3.2,20.6,1,39.8-5.4,58.2l-20.1,0.2L239,272.8 c-0.8-0.4-24.3-0.5-25-0.4c-12.2-9.2-50.1,0.9-52.6-15.5l0-37.8c0-0.1,0-4-0.1-4.1c-0.1-0.3-1.9-6.3-1.9-6.3 C169.3,159.4,209,119.2,261.6,111.1z"></path><path
            class="st21"
            d="M261.5,111.2c67.3-10.4,130.3,35.8,140.7,103.1c3.2,20.6,1,39.8-5.5,58.2l-20.1,0.2l-137.7,0.2 c-0.8-0.4-24.3-0.5-25-0.4c-12.3-9.1-50,0.9-52.6-15.5l0-37.8c0-0.1,0-4-0.1-4.1c-0.1-0.4-1.9-6.3-1.9-6.3 C169.3,159.4,209,119.3,261.5,111.2z"></path><path
            class="st22"
            d="M261.5,111.2c67.3-10.4,130.2,35.8,140.6,103.1c3.2,20.6,1,39.8-5.5,58.2l-20,0.2l-137.7,0.2 c-0.9-0.4-24.2-0.5-25-0.4c-12.3-9.1-50,1-52.5-15.5l0-37.8c0-0.2,0-4-0.1-4.1c-0.1-0.4-1.9-6.3-1.9-6.3 C169.3,159.4,209,119.3,261.5,111.2z"></path><path
            class="st23"
            d="M261.5,111.2c67.3-10.4,130.2,35.8,140.5,103c3.2,20.6,1,39.8-5.5,58.2l-20,0.2l-137.6,0.2 c-0.9-0.5-24.2-0.5-25-0.5c-12.4-9-49.9,1.1-52.5-15.5l0-37.8c0-0.2,0-4-0.1-4.1c-0.1-0.4-1.9-6.3-1.9-6.3 C169.3,159.4,208.9,119.3,261.5,111.2z"></path><path
            class="st24"
            d="M261.4,111.2c67.2-10.4,130.1,35.8,140.5,103c3.2,20.6,1,39.8-5.5,58.3l-20,0.2l-137.6,0.2 c-0.9-0.5-24.1-0.5-25-0.5c-12.4-8.9-49.9,1.2-52.4-15.5l0-37.8c0-0.2,0-4-0.1-4.1c-0.1-0.4-1.9-6.3-1.9-6.3 C169.3,159.5,208.9,119.3,261.4,111.2z"></path><path
            class="st25"
            d="M261.4,111.3c67.2-10.3,130.1,35.7,140.4,102.9c3.2,20.7,1,39.8-5.5,58.3l-20,0.2l-137.5,0.2 c-1-0.5-24.1-0.6-25-0.5c-12.5-8.9-49.8,1.2-52.4-15.5l0-37.7c0-0.2,0-4-0.1-4.1c-0.1-0.4-1.9-6.3-1.9-6.3 C169.3,159.5,208.9,119.3,261.4,111.3z"></path><path
            class="st26"
            d="M261.3,111.3c67.2-10.3,130,35.7,140.3,102.9c3.2,20.7,1,39.9-5.5,58.3l-20,0.2l-137.5,0.2 c-1-0.5-24-0.6-25-0.5c-12.5-8.8-49.7,1.3-52.3-15.5l0-37.7c0-0.2,0-4-0.1-4.1c-0.1-0.5-1.9-6.3-1.9-6.3 C169.3,159.5,208.8,119.4,261.3,111.3z"></path><path
            class="st27"
            d="M261.3,111.3C328.4,101,391.2,147,401.6,214.2c3.2,20.7,1,39.9-5.5,58.3l-20,0.2l-137.4,0.2 c-1.1-0.5-24-0.6-25-0.6c-12.6-8.8-49.7,1.4-52.3-15.5l0-37.7c0-0.2,0-3.9-0.1-4.1c-0.1-0.5-1.9-6.3-1.9-6.3 C169.2,159.5,208.8,119.4,261.3,111.3z"></path><path
            class="st28"
            d="M261.2,111.3C328.3,101,391.1,147,401.4,214.1c3.2,20.7,1,39.9-5.5,58.3l-20,0.2l-137.4,0.2 c-1.1-0.6-23.9-0.6-24.9-0.6c-12.7-8.7-49.6,1.5-52.2-15.4l0-37.7c0-0.2,0-3.9-0.1-4.1c-0.1-0.5-1.9-6.3-1.9-6.3 C169.2,159.5,208.8,119.4,261.2,111.3z"></path><path
            class="st29"
            d="M261.2,111.4C328.3,101,391,147,401.3,214.1c3.2,20.7,1,39.9-5.6,58.4l-20,0.2l-137.4,0.2 c-1.1-0.6-23.9-0.7-24.9-0.6c-12.7-8.6-49.6,1.5-52.2-15.4l0-37.7c0-0.2,0-3.9-0.1-4.1c-0.1-0.5-1.9-6.3-1.9-6.3 C169.2,159.5,208.8,119.4,261.2,111.4z"></path><path
            class="st30"
            d="M261.1,111.4c67-10.3,129.8,35.7,140.1,102.7c3.2,20.7,0.9,39.9-5.6,58.4l-20,0.2l-137.3,0.2 c-1.2-0.6-23.8-0.7-24.9-0.6c-12.8-8.6-49.5,1.6-52.1-15.4l0-37.7c0-0.2,0-3.9-0.1-4.1c-0.1-0.5-1.9-6.3-1.9-6.3 C169.2,159.5,208.7,119.5,261.1,111.4z"></path><path
            class="st31"
            d="M261.1,111.4c67-10.3,129.7,35.6,140,102.7c3.2,20.7,0.9,40-5.6,58.4l-20,0.2l-137.3,0.2 c-1.2-0.6-23.8-0.7-24.9-0.6c-12.8-8.5-49.4,1.7-52.1-15.4l0-37.7c0-0.2-0.1-3.9-0.1-4.1c-0.1-0.5-1.9-6.3-1.9-6.3 C169.2,159.6,208.7,119.5,261.1,111.4z"></path><path
            class="st32"
            d="M261.1,111.4c67-10.3,129.6,35.6,140,102.6c3.2,20.7,0.9,40-5.6,58.4l-20,0.2l-137.2,0.2 c-1.2-0.6-23.7-0.7-24.9-0.7c-12.9-8.5-49.4,1.7-52-15.4l0-37.7c0-0.2-0.1-3.9-0.1-4.1c-0.1-0.6-1.9-6.3-1.9-6.3 C169.2,159.6,208.7,119.5,261.1,111.4z"></path><path
            class="st33"
            d="M261,111.5c67-10.3,129.6,35.6,139.9,102.6c3.2,20.7,0.9,40-5.6,58.4l-20,0.2l-137.2,0.2 c-1.3-0.7-23.7-0.8-24.9-0.7c-12.9-8.4-49.3,1.8-52-15.4l0-37.6c0-0.2-0.1-3.9-0.1-4.1c-0.1-0.6-1.9-6.3-1.9-6.3 C169.2,159.6,208.7,119.5,261,111.5z"></path><path
            class="st34"
            d="M261,111.5c66.9-10.3,129.5,35.6,139.8,102.5c3.2,20.7,0.9,40-5.6,58.5l-20,0.2l-137.1,0.2 c-1.3-0.7-23.6-0.8-24.9-0.7c-13-8.4-49.2,1.9-51.9-15.4l0-37.6c0-0.2-0.1-3.9-0.1-4.1c-0.1-0.6-1.9-6.3-1.9-6.3 C169.2,159.6,208.6,119.5,261,111.5z"></path><path
            class="st35"
            d="M260.9,111.5c66.9-10.3,129.5,35.6,139.8,102.5c3.2,20.7,0.9,40-5.6,58.5l-20,0.2L238,272.8 c-1.4-0.7-23.6-0.8-24.9-0.7c-13-8.3-49.2,2-51.9-15.4l0-37.6c0-0.2-0.1-3.9-0.1-4.1c-0.1-0.6-1.9-6.3-1.9-6.3 C169.1,159.6,208.6,119.6,260.9,111.5z"></path><path
            class="st36"
            d="M260.9,111.5c66.9-10.3,129.4,35.6,139.7,102.4c3.2,20.7,0.9,40-5.7,58.5l-19.9,0.1l-137,0.1 c-1.4-0.7-23.5-0.8-24.8-0.8c-13.1-8.2-49.1,2-51.8-15.4l0-37.6c0-0.2-0.1-3.9-0.1-4.1c-0.1-0.6-1.9-6.3-1.9-6.3 C169.1,159.6,208.6,119.6,260.9,111.5z"></path><path
            class="st37"
            d="M260.8,111.6c66.8-10.3,129.4,35.5,139.6,102.4c3.2,20.7,0.9,40.1-5.7,58.5l-19.9,0.1l-137,0.1 c-1.4-0.7-23.5-0.9-24.8-0.8c-13.1-8.2-49.1,2.1-51.8-15.4l0-37.6c0-0.3-0.1-3.9-0.1-4.1c-0.1-0.6-1.9-6.3-1.9-6.3 C169.1,159.6,208.6,119.6,260.8,111.6z"></path><path
            class="st38"
            d="M260.8,111.6c66.8-10.3,129.3,35.5,139.6,102.3c3.2,20.7,0.9,40.1-5.7,58.5l-19.9,0.1l-136.9,0.1 c-1.5-0.8-23.4-0.9-24.8-0.8c-13.2-8.1-49,2.2-51.7-15.3l0-37.6c0-0.3-0.1-3.9-0.1-4.1c-0.1-0.7-1.9-6.2-1.9-6.2 C169.1,159.6,208.5,119.6,260.8,111.6z"></path><path
            class="st39"
            d="M260.8,111.6c66.8-10.3,129.2,35.5,139.5,102.3c3.2,20.7,0.9,40.1-5.7,58.6l-19.9,0.1l-136.9,0.1 c-1.5-0.8-23.4-0.9-24.8-0.8c-13.2-8.1-48.9,2.3-51.6-15.3l0-37.6c0-0.3-0.1-3.9-0.1-4.1c-0.1-0.7-1.9-6.2-1.9-6.2 C169.1,159.7,208.5,119.7,260.8,111.6z"></path><path
            class="st40"
            d="M260.7,111.6c66.7-10.3,129.2,35.5,139.5,102.2c3.2,20.7,0.9,40.1-5.7,58.6l-19.9,0.1l-136.8,0.1 c-1.6-0.8-23.3-0.9-24.8-0.8c-13.3-8-48.9,2.3-51.6-15.3l0-37.6c0-0.3-0.1-3.9-0.1-4.1c-0.1-0.7-1.9-6.2-1.9-6.2 C169.1,159.7,208.5,119.7,260.7,111.6z"></path><path
            class="st41"
            d="M260.7,111.7c66.7-10.3,129.1,35.5,139.4,102.2c3.2,20.8,0.9,40.1-5.7,58.6l-19.9,0.1l-136.8,0.1 c-1.6-0.8-23.3-1-24.8-0.9c-13.3-7.9-48.8,2.4-51.5-15.3l0-37.5c0-0.3-0.1-3.8-0.1-4.1c-0.1-0.7-1.9-6.2-1.9-6.2 C169.1,159.7,208.4,119.7,260.7,111.7z"></path><path
            class="st42"
            d="M260.6,111.7c66.7-10.3,129.1,35.5,139.3,102.1c3.2,20.8,0.9,40.2-5.7,58.6l-19.9,0.1l-136.7,0.1 c-1.6-0.8-23.3-1-24.8-0.9c-13.4-7.9-48.8,2.5-51.5-15.3l0-37.5c0-0.3-0.1-3.8-0.1-4.1c-0.1-0.7-1.9-6.2-1.9-6.2 C169.1,159.7,208.4,119.7,260.6,111.7z"></path><path
            class="st43"
            d="M260.6,111.7c66.6-10.3,129,35.4,139.3,102.1c3.2,20.8,0.9,40.2-5.7,58.6l-19.9,0.1l-136.7,0.1 c-1.7-0.9-23.2-1-24.8-0.9c-13.4-7.8-48.7,2.6-51.4-15.3l0-37.5c0-0.3-0.1-3.8-0.1-4.1c-0.1-0.8-1.9-6.2-1.9-6.2 C169,159.7,208.4,119.7,260.6,111.7z"></path><path
            class="st44"
            d="M260.5,111.7c66.6-10.3,128.9,35.4,139.2,102.1c3.2,20.8,0.9,40.2-5.8,58.7l-19.9,0.1l-136.6,0.1 c-1.7-0.9-23.2-1-24.7-0.9c-13.5-7.8-48.6,2.6-51.4-15.3l0-37.5c0-0.3-0.1-3.8-0.1-4.1c-0.1-0.8-1.9-6.2-1.9-6.2 C169,159.7,208.4,119.8,260.5,111.7z"></path><path
            class="st45"
            d="M260.5,111.8c66.6-10.3,128.9,35.4,139.1,102c3.2,20.8,0.9,40.2-5.8,58.7l-19.9,0.1l-136.6,0.1 c-1.8-0.9-23.1-1.1-24.7-0.9c-13.5-7.7-48.6,2.7-51.3-15.3l0-37.5c0-0.3-0.1-3.8-0.1-4.1c-0.2-0.8-1.9-6.2-1.9-6.2 C169,159.7,208.3,119.8,260.5,111.8z"></path><path
            class="st46"
            d="M260.4,111.8c66.6-10.2,128.8,35.4,139.1,102c3.2,20.8,0.9,40.2-5.8,58.7l-19.9,0.1l-136.5,0.1 c-1.8-0.9-23.1-1.1-24.7-1c-13.6-7.7-48.5,2.8-51.3-15.3l0-37.5c0-0.3-0.1-3.8-0.1-4.1c-0.2-0.8-1.9-6.2-1.9-6.2 C169,159.8,208.3,119.8,260.4,111.8z"></path><path
            class="st47"
            d="M260.4,111.8c66.5-10.2,128.8,35.4,139,101.9c3.2,20.8,0.9,40.2-5.8,58.7l-19.9,0.1l-136.5,0.1 c-1.8-0.9-23-1.1-24.7-1c-13.6-7.6-48.4,2.8-51.2-15.3l0-37.5c0-0.3-0.1-3.8-0.1-4.1c-0.2-0.8-1.9-6.2-1.9-6.2 C169,159.8,208.3,119.8,260.4,111.8z"></path><path
            class="st48"
            d="M260.4,111.8c66.5-10.2,128.7,35.4,138.9,101.9c3.2,20.8,0.9,40.3-5.8,58.7l-19.9,0.1l-136.4,0.1 c-1.9-1-23-1.1-24.7-1c-13.7-7.5-48.4,2.9-51.2-15.2l0-37.5c0-0.3-0.1-3.8-0.1-4.1c-0.2-0.8-1.9-6.2-1.9-6.2 C169,159.8,208.3,119.9,260.4,111.8z"></path><path
            class="st49"
            d="M260.3,111.9c66.5-10.2,128.6,35.4,138.9,101.8c3.2,20.8,0.9,40.3-5.8,58.8l-19.9,0.1l-136.4,0.1 c-1.9-1-22.9-1.2-24.7-1c-13.7-7.5-48.3,3-51.1-15.2l0-37.4c0-0.3-0.1-3.8-0.1-4.1c-0.2-0.9-1.9-6.2-1.9-6.2 C169,159.8,208.2,119.9,260.3,111.9z"></path><path
            class="st50"
            d="M260.3,111.9c66.4-10.2,128.6,35.3,138.8,101.8c3.2,20.8,0.9,40.3-5.8,58.8l-19.8,0.1l-136.3,0.1 c-1.9-1-22.9-1.2-24.7-1.1c-13.8-7.4-48.3,3.1-51.1-15.2l0-37.4c0-0.3-0.1-3.8-0.1-4.1c-0.2-0.9-1.9-6.2-1.9-6.2 C169,159.8,208.2,119.9,260.3,111.9z"></path><path
            class="st51"
            d="M260.2,111.9c66.4-10.2,128.5,35.3,138.8,101.7c3.2,20.8,0.9,40.3-5.8,58.8l-19.8,0.1L237,272.7 c-2-1-22.8-1.2-24.7-1.1c-13.8-7.4-48.2,3.1-51-15.2l0-37.4c0-0.3-0.1-3.8-0.1-4.1c-0.2-0.9-1.9-6.2-1.9-6.2 C168.9,159.8,208.2,119.9,260.2,111.9z"></path><path
            class="st52"
            d="M260.2,111.9c66.4-10.2,128.5,35.3,138.7,101.7c3.2,20.8,0.9,40.3-5.9,58.8l-19.8,0.1L237,272.7 c-2-1-22.8-1.2-24.6-1.1c-13.9-7.3-48.1,3.2-51-15.2l0-37.4c0-0.4-0.1-3.8-0.1-4.1c-0.2-0.9-1.9-6.2-1.9-6.2 C168.9,159.8,208.2,119.9,260.2,111.9z"></path><path
            class="st53"
            d="M260.1,112c66.3-10.2,128.4,35.3,138.6,101.6c3.2,20.8,0.9,40.4-5.9,58.8l-19.8,0.1l-136.2,0.1 c-2.1-1.1-22.7-1.3-24.6-1.1c-13.9-7.2-48.1,3.3-50.9-15.2l0-37.4c0-0.4-0.1-3.8-0.1-4.1c-0.2-0.9-1.9-6.2-1.9-6.2 C168.9,159.8,208.1,120,260.1,112z"></path><path
            class="st54"
            d="M260.1,112c66.3-10.2,128.4,35.3,138.6,101.6c3.2,20.8,0.9,40.4-5.9,58.9l-19.8,0.1l-136.1,0.1 c-2.1-1.1-22.7-1.3-24.6-1.1c-14-7.2-48,3.4-50.9-15.2l0-37.4c0-0.4-0.1-3.8-0.2-4.1c-0.2-0.9-1.9-6.2-1.9-6.2 C168.9,159.9,208.1,120,260.1,112z"></path><path
            class="st55"
            d="M260.1,112c66.3-10.2,128.3,35.3,138.5,101.5c3.2,20.8,0.9,40.4-5.9,58.9l-19.8,0.1l-136.1,0.1 c-2.1-1.1-22.6-1.3-24.6-1.2c-14-7.1-48,3.4-50.8-15.2l0-37.4c0-0.4-0.1-3.7-0.2-4.1c-0.2-1-1.9-6.2-1.9-6.2 C168.9,159.9,208.1,120,260.1,112z"></path><path
            class="st56"
            d="M260,112c66.3-10.2,128.2,35.2,138.4,101.5c3.2,20.8,0.8,40.4-5.9,58.9l-19.8,0.1l-136,0.1 c-2.2-1.1-22.6-1.3-24.6-1.2c-14.1-7.1-47.9,3.5-50.8-15.2l0-37.4c0-0.4-0.1-3.7-0.2-4.1c-0.2-1-1.8-6.2-1.8-6.2 C168.9,159.9,208,120,260,112z"></path><path
            class="st57"
            d="M260,112.1c66.2-10.2,128.2,35.2,138.4,101.4c3.2,20.9,0.8,40.4-5.9,58.9l-19.8,0.1l-136,0.1 c-2.2-1.2-22.5-1.3-24.6-1.2c-14.1-7-47.8,3.6-50.7-15.2l0-37.3c0-0.4-0.1-3.7-0.2-4.1c-0.2-1-1.8-6.2-1.8-6.2 C168.9,159.9,208,120.1,260,112.1z"></path><path
            class="st58"
            d="M259.9,112.1c66.2-10.2,128.1,35.2,138.3,101.4c3.2,20.9,0.8,40.4-5.9,58.9l-19.8,0.1l-135.9,0.1 c-2.3-1.2-22.5-1.4-24.6-1.2c-14.2-6.9-47.8,3.6-50.7-15.1l0-37.3c0-0.4-0.1-3.7-0.2-4.1c-0.2-1-1.8-6.2-1.8-6.2 C168.9,159.9,208,120.1,259.9,112.1z"></path><path
            class="st59"
            d="M259.9,112.1c66.2-10.2,128.1,35.2,138.2,101.4c3.2,20.9,0.8,40.5-6,59l-19.8,0.1l-135.9,0.1 c-2.3-1.2-22.4-1.4-24.6-1.3c-14.2-6.9-47.7,3.7-50.6-15.1l0-37.3c0-0.4-0.1-3.7-0.2-4.1c-0.2-1-1.8-6.2-1.8-6.2 C168.9,159.9,208,120.1,259.9,112.1z"></path><path
            class="st60"
            d="M259.8,112.1c66.1-10.2,128,35.2,138.2,101.3c3.2,20.9,0.8,40.5-6,59l-19.8,0.1l-135.8,0.1 c-2.3-1.2-22.4-1.4-24.5-1.3c-14.3-6.8-47.6,3.8-50.6-15.1l0-37.3c0-0.4-0.1-3.7-0.2-4.1c-0.2-1-1.8-6.2-1.8-6.2 C168.8,159.9,207.9,120.1,259.8,112.1z"></path><path
            class="st61"
            d="M259.8,112.2c66.1-10.2,127.9,35.2,138.1,101.3c3.2,20.9,0.8,40.5-6,59l-19.8,0.1l-135.8,0.1 c-2.4-1.2-22.3-1.4-24.5-1.3c-14.3-6.8-47.6,3.9-50.5-15.1l0-37.3c0-0.4-0.1-3.7-0.2-4.1c-0.2-1.1-1.8-6.2-1.8-6.2 C168.8,160,207.9,120.1,259.8,112.2z"></path><path
            class="st62"
            d="M259.8,112.2c66.1-10.2,127.9,35.1,138.1,101.2c3.2,20.9,0.8,40.5-6,59l-19.8,0.1l-135.7,0.1 c-2.4-1.3-22.3-1.5-24.5-1.3c-14.4-6.7-47.5,3.9-50.5-15.1l0-37.3c0-0.4-0.1-3.7-0.2-4.1c-0.2-1.1-1.8-6.2-1.8-6.2 C168.8,160,207.9,120.2,259.8,112.2z"></path><path
            class="st63"
            d="M259.7,112.2c66-10.2,127.8,35.1,138,101.2c3.2,20.9,0.8,40.5-6,59l-19.7,0.1l-135.7,0.1 c-2.5-1.3-22.2-1.5-24.5-1.3c-14.4-6.7-47.5,4-50.4-15.1l0-37.3c0-0.4-0.1-3.7-0.2-4.1c-0.2-1.1-1.8-6.2-1.8-6.2 C168.8,160,207.9,120.2,259.7,112.2z"></path><path
            class="st64"
            d="M259.7,112.2c66-10.2,127.8,35.1,137.9,101.1c3.2,20.9,0.8,40.5-6,59.1l-19.7,0.1l-135.6,0.1 c-2.5-1.3-22.2-1.5-24.5-1.4c-14.5-6.6-47.4,4.1-50.4-15.1l0-37.3c0-0.4-0.1-3.7-0.2-4.1c-0.2-1.1-1.8-6.2-1.8-6.2 C168.8,160,207.8,120.2,259.7,112.2z"></path><path
            class="st65"
            d="M259.6,112.2c66-10.2,127.7,35.1,137.9,101.1c3.2,20.9,0.8,40.6-6,59.1l-19.7,0.1l-135.6,0.1 c-2.5-1.3-22.1-1.5-24.5-1.4c-14.5-6.5-47.3,4.2-50.3-15.1l0-37.3c0-0.4-0.1-3.7-0.2-4.1c-0.2-1.1-1.8-6.2-1.8-6.2 C168.8,160,207.8,120.2,259.6,112.2z"></path><path
            class="st66"
            d="M259.6,112.3c66-10.2,127.6,35.1,137.8,101c3.2,20.9,0.8,40.6-6,59.1l-19.7,0.1l-135.5,0.1 c-2.6-1.3-22.1-1.6-24.5-1.4c-14.6-6.5-47.3,4.2-50.3-15.1l0-37.2c0-0.5-0.1-3.7-0.2-4.1c-0.2-1.2-1.8-6.2-1.8-6.2 C168.8,160,207.8,120.2,259.6,112.3z"></path><path
            class="st67"
            d="M259.5,112.3c65.9-10.2,127.6,35.1,137.7,101c3.2,20.9,0.8,40.6-6.1,59.1l-19.7,0.1L236,272.6 c-2.6-1.4-22-1.6-24.5-1.4c-14.6-6.4-47.2,4.3-50.2-15.1l0-37.2c0-0.5-0.1-3.7-0.2-4.1c-0.2-1.2-1.8-6.2-1.8-6.2 C168.8,160,207.8,120.3,259.5,112.3z"></path><path
            class="st68"
            d="M259.5,112.3c65.9-10.1,127.5,35,137.7,100.9c3.2,20.9,0.8,40.6-6.1,59.1l-19.7,0.1l-135.4,0.1 c-2.6-1.4-22-1.6-24.4-1.5c-14.7-6.4-47.2,4.4-50.1-15l0-37.2c0-0.5-0.1-3.6-0.2-4.1c-0.2-1.2-1.8-6.2-1.8-6.2 C168.7,160,207.7,120.3,259.5,112.3z"></path><path
            class="st69"
            d="M259.4,112.3c65.9-10.1,127.5,35,137.6,100.9c3.2,20.9,0.8,40.6-6.1,59.2l-19.7,0.1l-135.4,0.1 c-2.7-1.4-21.9-1.6-24.4-1.5c-14.8-6.3-47.1,4.5-50.1-15l0-37.2c0-0.5-0.1-3.6-0.2-4.1c-0.2-1.2-1.8-6.2-1.8-6.2 C168.7,160.1,207.7,120.3,259.4,112.3z"></path><path
            class="st70"
            d="M259.4,112.4c65.8-10.1,127.4,35,137.5,100.8c3.2,20.9,0.8,40.7-6.1,59.2l-19.7,0.1l-135.3,0.1 c-2.7-1.4-21.9-1.7-24.4-1.5c-14.8-6.2-47,4.5-50-15l0-37.2c0-0.5-0.1-3.6-0.2-4c-0.2-1.2-1.8-6.2-1.8-6.2 C168.7,160.1,207.7,120.3,259.4,112.4z"></path><path
            class="st71"
            d="M259.4,112.4c65.8-10.1,127.4,35,137.5,100.8c3.2,20.9,0.8,40.7-6.1,59.2l-19.7,0.1l-135.3,0.1 c-2.8-1.4-21.8-1.7-24.4-1.5c-14.9-6.2-47,4.6-50-15l0-37.2c0-0.5-0.1-3.6-0.2-4c-0.2-1.2-1.8-6.2-1.8-6.2 C168.7,160.1,207.6,120.4,259.4,112.4z"></path><path
            class="st72"
            d="M259.3,112.4c65.8-10.1,127.3,35,137.4,100.8c3.2,20.9,0.8,40.7-6.1,59.2l-19.7,0.1l-135.2,0.1 c-2.8-1.5-21.8-1.7-24.4-1.5c-14.9-6.1-46.9,4.7-49.9-15l0-37.2c0-0.5-0.1-3.6-0.2-4c-0.2-1.3-1.8-6.2-1.8-6.2 C168.7,160.1,207.6,120.4,259.3,112.4z"></path><path
            class="st73"
            d="M259.3,112.4c65.7-10.1,127.2,35,137.4,100.7c3.2,21,0.8,40.7-6.1,59.2l-19.7,0.1l-135.2,0.1 c-2.8-1.5-21.8-1.7-24.4-1.6c-15-6.1-46.8,4.7-49.9-15l0-37.2c0-0.5-0.1-3.6-0.2-4c-0.2-1.3-1.8-6.2-1.8-6.2 C168.7,160.1,207.6,120.4,259.3,112.4z"></path><path
            class="st74"
            d="M259.2,112.5c65.7-10.1,127.2,34.9,137.3,100.7c3.2,21,0.8,40.7-6.1,59.3l-19.7,0.1l-135.2,0.1 c-2.9-1.5-21.7-1.8-24.4-1.6c-15-6-46.8,4.8-49.8-15l0-37.1c0-0.5-0.1-3.6-0.2-4c-0.3-1.3-1.8-6.2-1.8-6.2 C168.7,160.1,207.6,120.4,259.2,112.5z"></path><path
            class="st75"
            d="M259.2,112.5c65.7-10.1,127.1,34.9,137.2,100.6c3.2,21,0.8,40.7-6.2,59.3l-19.7,0.1l-135.1,0.1 c-2.9-1.5-21.7-1.8-24.4-1.6c-15.1-6-46.7,4.9-49.8-15l0-37.1c0-0.5-0.1-3.6-0.2-4c-0.3-1.3-1.8-6.2-1.8-6.2 C168.7,160.1,207.5,120.4,259.2,112.5z"></path><path
            class="st76"
            d="M259.1,112.5c65.6-10.1,127.1,34.9,137.2,100.6c3.2,21,0.8,40.8-6.2,59.3l-19.7,0.1l-135.1,0.1 c-3-1.5-21.6-1.8-24.4-1.6c-15.1-5.9-46.7,5-49.7-15l0-37.1c0-0.5-0.1-3.6-0.2-4c-0.3-1.3-1.8-6.2-1.8-6.2 C168.6,160.2,207.5,120.5,259.1,112.5z"></path><path
            class="st77"
            d="M259.1,112.5c65.6-10.1,127,34.9,137.1,100.5c3.2,21,0.8,40.8-6.2,59.3l-19.6,0.1l-135,0.1 c-3-1.6-21.6-1.8-24.3-1.6c-15.2-5.8-46.6,5-49.7-15l0-37.1c-0.1-0.5-0.1-3.6-0.2-4c-0.3-1.3-1.8-6.2-1.8-6.2 C168.6,160.2,207.5,120.5,259.1,112.5z"></path><path
            class="st78"
            d="M259.1,112.6c65.6-10.1,126.9,34.9,137,100.5c3.2,21,0.8,40.8-6.2,59.3l-19.6,0.1l-135,0.1 c-3-1.6-21.5-1.9-24.3-1.7c-15.2-5.8-46.5,5.1-49.6-14.9l0-37.1c-0.1-0.5-0.1-3.6-0.2-4c-0.3-1.4-1.8-6.2-1.8-6.2 C168.6,160.2,207.5,120.5,259.1,112.6z"></path><path
            class="st79"
            d="M259,112.6c65.6-10.1,126.9,34.9,137,100.4c3.2,21,0.8,40.8-6.2,59.4l-19.6,0.1l-134.9,0.1 c-3.1-1.6-21.5-1.9-24.3-1.7c-15.3-5.7-46.5,5.2-49.6-14.9l0-37.1c-0.1-0.5-0.1-3.6-0.2-4c-0.3-1.4-1.8-6.2-1.8-6.2 C168.6,160.2,207.4,120.5,259,112.6z"></path><path
            class="st80"
            d="M259,112.6c65.5-10.1,126.8,34.9,136.9,100.4c3.2,21,0.8,40.8-6.2,59.4l-19.6,0.1l-134.9,0.1 c-3.1-1.6-21.4-1.9-24.3-1.7c-15.3-5.7-46.4,5.3-49.5-14.9l0-37.1c-0.1-0.5-0.1-3.6-0.2-4c-0.3-1.4-1.8-6.2-1.8-6.2 C168.6,160.2,207.4,120.6,259,112.6z"></path><path
            class="st81"
            d="M258.9,112.6c65.5-10.1,126.8,34.8,136.9,100.3c3.2,21,0.7,40.9-6.2,59.4l-19.6,0.1l-134.8,0.1 c-3.2-1.6-21.4-1.9-24.3-1.7c-15.4-5.6-46.4,5.3-49.5-14.9l0-37.1c-0.1-0.6-0.1-3.6-0.2-4c-0.3-1.4-1.8-6.2-1.8-6.2 C168.6,160.2,207.4,120.6,258.9,112.6z"></path><path
            class="st82"
            d="M258.9,112.7c65.5-10.1,126.7,34.8,136.8,100.3c3.2,21,0.7,40.9-6.3,59.4l-19.6,0.1L235,272.6 c-3.2-1.7-21.3-2-24.3-1.8c-15.4-5.5-46.3,5.4-49.4-14.9l0-37c-0.1-0.6-0.1-3.5-0.2-4c-0.3-1.4-1.8-6.2-1.8-6.2 C168.6,160.2,207.4,120.6,258.9,112.7z"></path><path
            class="st83"
            d="M258.8,112.7c65.4-10.1,126.7,34.8,136.7,100.2c3.2,21,0.7,40.9-6.3,59.4l-19.6,0.1L235,272.6 c-3.2-1.7-21.3-2-24.3-1.8c-15.5-5.5-46.2,5.5-49.4-14.9l0-37c-0.1-0.6-0.1-3.5-0.2-4c-0.3-1.4-1.8-6.2-1.8-6.2 C168.6,160.2,207.3,120.6,258.8,112.7z"></path><path
            class="st84"
            d="M258.8,112.7c65.4-10.1,126.6,34.8,136.7,100.2c3.2,21,0.7,40.9-6.3,59.5l-19.6,0.1l-134.7,0.1 c-3.3-1.7-21.2-2-24.3-1.8c-15.5-5.4-46.2,5.6-49.3-14.9l0-37c-0.1-0.6-0.1-3.5-0.2-4c-0.3-1.5-1.8-6.2-1.8-6.2 C168.5,160.3,207.3,120.6,258.8,112.7z"></path><path
            class="st85"
            d="M258.7,112.7c65.4-10.1,126.5,34.8,136.6,100.1c3.2,21,0.7,40.9-6.3,59.5l-19.6,0.1l-134.6,0.1 c-3.3-1.7-21.2-2-24.2-1.8c-15.6-5.4-46.1,5.6-49.3-14.9l0-37c-0.1-0.6-0.1-3.5-0.2-4c-0.3-1.5-1.8-6.2-1.8-6.2 C168.5,160.3,207.3,120.7,258.7,112.7z"></path><path
            class="st86"
            d="M258.7,112.8c65.3-10.1,126.5,34.8,136.5,100.1c3.2,21,0.7,40.9-6.3,59.5l-19.6,0.1l-134.6,0.1 c-3.4-1.7-21.1-2.1-24.2-1.8c-15.6-5.3-46.1,5.7-49.2-14.9l0-37c-0.1-0.6-0.1-3.5-0.2-4c-0.3-1.5-1.8-6.2-1.8-6.2 C168.5,160.3,207.2,120.7,258.7,112.8z"></path><path
            class="st87"
            d="M258.7,112.8c65.3-10.1,126.4,34.7,136.5,100.1c3.2,21,0.7,41-6.3,59.5l-19.6,0.1l-134.5,0.1 c-3.4-1.8-21.1-2.1-24.2-1.9c-15.7-5.2-46,5.8-49.2-14.9l0-37c-0.1-0.6-0.1-3.5-0.2-4c-0.3-1.5-1.8-6.2-1.8-6.2 C168.5,160.3,207.2,120.7,258.7,112.8z"></path><path
            class="st88"
            d="M258.6,112.8c65.3-10.1,126.4,34.7,136.4,100c3.2,21,0.7,41-6.3,59.5l-19.6,0.1l-134.5,0.1 c-3.4-1.8-21-2.1-24.2-1.9c-15.7-5.2-45.9,5.8-49.1-14.8l0-37c-0.1-0.6-0.1-3.5-0.2-4c-0.3-1.5-1.8-6.2-1.8-6.2 C168.5,160.3,207.2,120.7,258.6,112.8z"></path><path
            class="st89"
            d="M258.6,112.8c65.3-10,126.3,34.7,136.3,100c3.2,21.1,0.7,41-6.3,59.6l-19.6,0.1l-134.4,0.1 c-3.5-1.8-21-2.1-24.2-1.9c-15.8-5.1-45.9,5.9-49.1-14.8l0-37c-0.1-0.6-0.1-3.5-0.2-4c-0.3-1.6-1.8-6.2-1.8-6.2 C168.5,160.3,207.2,120.8,258.6,112.8z"></path><path
            class="st90"
            d="M258.5,112.9c65.2-10,126.2,34.7,136.3,99.9c3.2,21.1,0.7,41-6.4,59.6l-19.6,0.1l-134.4,0.1 c-3.5-1.8-20.9-2.2-24.2-1.9c-15.8-5.1-45.8,6-49-14.8l0-36.9c-0.1-0.6-0.1-3.5-0.3-4c-0.3-1.6-1.8-6.2-1.8-6.2 C168.5,160.3,207.1,120.8,258.5,112.9z"></path><path
            class="st91"
            d="M258.5,112.9c65.2-10,126.2,34.7,136.2,99.9c3.2,21.1,0.7,41-6.4,59.6l-19.5,0.1l-134.3,0.1 c-3.5-1.8-20.9-2.2-24.2-2c-15.9-5-45.7,6.1-49-14.8l0-36.9c-0.1-0.6-0.2-3.5-0.3-4c-0.3-1.6-1.8-6.2-1.8-6.2 C168.5,160.4,207.1,120.8,258.5,112.9z"></path><path
            class="st92"
            d="M258.4,112.9c65.2-10,126.1,34.7,136.2,99.8c3.2,21.1,0.7,41.1-6.4,59.6l-19.5,0.1l-134.3,0.1 c-3.6-1.9-20.8-2.2-24.2-2c-15.9-5-45.7,6.1-48.9-14.8l0-36.9c-0.1-0.6-0.2-3.5-0.3-4c-0.3-1.6-1.8-6.2-1.8-6.2 C168.4,160.4,207.1,120.8,258.4,112.9z"></path><path
            class="st93"
            d="M258.4,112.9c65.1-10,126.1,34.6,136.1,99.8c3.2,21.1,0.7,41.1-6.4,59.7l-19.5,0.1l-134.2,0.1 c-3.6-1.9-20.8-2.2-24.1-2c-16-4.9-45.6,6.2-48.9-14.8l0-36.9c-0.1-0.6-0.2-3.5-0.3-4c-0.3-1.6-1.8-6.2-1.8-6.2 C168.4,160.4,207.1,120.8,258.4,112.9z"></path><path
            class="st94"
            d="M258.4,113c65.1-10,126,34.6,136,99.7c3.2,21.1,0.7,41.1-6.4,59.7l-19.5,0.1l-134.2,0.1 c-3.7-1.9-20.7-2.2-24.1-2c-16-4.8-45.6,6.3-48.8-14.8l0-36.9c-0.1-0.6-0.2-3.5-0.3-4c-0.3-1.6-1.8-6.2-1.8-6.2 C168.4,160.4,207,120.9,258.4,113z"></path><path
            class="st95"
            d="M258.3,113c65.1-10,125.9,34.6,136,99.7c3.2,21.1,0.7,41.1-6.4,59.7l-19.5,0.1l-134.1,0.1 c-3.7-1.9-20.7-2.3-24.1-2c-16.1-4.8-45.5,6.4-48.8-14.8l0-36.9c-0.1-0.6-0.2-3.5-0.3-4c-0.3-1.7-1.8-6.2-1.8-6.2 C168.4,160.4,207,120.9,258.3,113z"></path><path
            class="st96"
            d="M258.3,113c65-10,125.9,34.6,135.9,99.6c3.2,21.1,0.7,41.1-6.4,59.7l-19.5,0.1l-134.1,0.1 c-3.7-1.9-20.6-2.3-24.1-2.1c-16.1-4.7-45.4,6.4-48.7-14.8l0-36.9c-0.1-0.7-0.2-3.4-0.3-4c-0.3-1.7-1.8-6.2-1.8-6.2 C168.4,160.4,207,120.9,258.3,113z"></path><path
            class="st97"
            d="M258.2,113c65-10,125.8,34.6,135.8,99.6c3.2,21.1,0.7,41.1-6.4,59.7l-19.5,0.1l-134,0.1 c-3.8-2-20.6-1.7-24.1-2.1c-16.7-1.8-45.4,6.5-48.6-14.8l0-36.9c-0.1-0.7-0.2-3.4-0.3-4c-0.3-1.7-1.8-6.2-1.8-6.2 C168.4,160.4,207,120.9,258.2,113z"></path><path
            class="st98"
            d="M258.2,113.1c65-10,125.8,34.6,135.8,99.5c3.3,21.1,0.7,41.2-6.5,59.8l-19.5,0.1l-134,0.1 c-3.8-2-20.6-1.7-24.1-2.1c-16.8-1.8-45.3,6.6-48.6-14.7l0-36.8c-0.1-0.7-0.2-3.4-0.3-4c-0.3-1.7-1.8-6.1-1.8-6.1 C168.4,160.4,206.9,121,258.2,113.1z"></path><path
            class="st99"
            d="M258.1,113.1c65-10,125.7,34.5,135.7,99.5c3.3,21.1,0.7,41.2-6.5,59.8l-19.5,0.1L234,272.5 c-3.9-2-20.5-1.8-24.1-2.1c-16.8-1.7-45.3,6.6-48.5-14.7l0-36.8c-0.1-0.7-0.2-3.4-0.3-4c-0.3-1.7-1.8-6.1-1.8-6.1 C168.4,160.5,206.9,121,258.1,113.1z"></path><path
            class="st100"
            d="M258.1,113.1c64.9-10,125.7,34.5,135.6,99.4c3.3,21.1,0.7,41.2-6.5,59.8l-19.5,0.1l-133.9,0.1 c-3.9-2-20.5-1.8-24.1-2.2c-16.9-1.7-45.2,6.7-48.5-14.7l0-36.8c-0.1-0.7-0.2-3.4-0.3-4c-0.3-1.7-1.8-6.1-1.8-6.1 C168.4,160.5,206.9,121,258.1,113.1z"></path><path
            class="st101"
            d="M258.1,113.1c64.9-10,125.6,34.5,135.6,99.4c3.3,21.1,0.7,41.2-6.5,59.8l-19.5,0.1l-133.8,0.1 c-3.9-2-20.4-1.8-24-2.2c-16.9-1.7-45.1,6.8-48.4-14.7l0-36.8c-0.1-0.7-0.2-3.4-0.3-4c-0.3-1.8-1.8-6.1-1.8-6.1 C168.3,160.5,206.8,121,258.1,113.1z"></path><path
            class="st102"
            d="M258,113.2c64.9-10,125.5,34.5,135.5,99.4c3.3,21.1,0.7,41.2-6.5,59.8l-19.5,0.1l-133.8,0.1 c-4-2.1-20.4-1.8-24-2.2c-16.9-1.6-45.1,6.9-48.4-14.7l0-36.8c-0.1-0.7-0.2-3.4-0.3-4c-0.3-1.8-1.8-6.1-1.8-6.1 C168.3,160.5,206.8,121,258,113.2z"></path><path
            class="st103"
            d="M258,113.2c64.8-10,125.5,34.5,135.5,99.3c3.3,21.1,0.7,41.2-6.5,59.9l-19.5,0.1l-133.7,0.1 c-4-2.1-20.3-1.9-24-2.2c-17-1.6-45,6.9-48.3-14.7l0-36.8c-0.1-0.7-0.2-3.4-0.3-4c-0.4-1.8-1.8-6.1-1.8-6.1 C168.3,160.5,206.8,121.1,258,113.2z"></path><path
            class="st104"
            d="M257.9,113.2c64.8-10,125.4,34.5,135.4,99.3c3.3,21.1,0.7,41.3-6.5,59.9l-19.5,0.1l-133.7,0.1 c-4.1-2.1-20.3-1.9-24-2.2c-17-1.6-44.9,7-48.3-14.7l0-36.8c-0.1-0.7-0.2-3.4-0.3-4c-0.4-1.8-1.8-6.1-1.8-6.1 C168.3,160.5,206.8,121.1,257.9,113.2z"></path><path
            class="st105"
            d="M257.9,113.2c64.8-10,125.4,34.4,135.3,99.2c3.3,21.2,0.7,41.3-6.6,59.9l-19.4,0.1l-133.6,0.1 c-4.1-2.1-20.2-1.9-24-2.3c-17-1.5-44.9,7.1-48.2-14.7l0-36.8c-0.1-0.7-0.2-3.4-0.3-4c-0.4-1.8-1.8-6.1-1.8-6.1 C168.3,160.5,206.7,121.1,257.9,113.2z"></path><path
            class="st106"
            d="M257.8,113.3c64.7-10,125.3,34.4,135.3,99.2c3.3,21.2,0.7,41.3-6.6,59.9l-19.4,0.1l-133.6,0.1 c-4.1-2.1-20.2-1.9-24-2.3c-17.1-1.5-44.8,7.2-48.2-14.7l0-36.8c-0.1-0.7-0.2-3.4-0.3-4c-0.4-1.9-1.8-6.1-1.8-6.1 C168.3,160.6,206.7,121.1,257.8,113.3z"></path><path
            class="st107"
            d="M257.8,113.3c64.7-10,125.2,34.4,135.2,99.1c3.3,21.2,0.6,41.3-6.6,59.9l-19.4,0.1l-133.5,0.1 c-4.2-2.2-20.1-2-24-2.3c-17.1-1.5-44.8,7.2-48.1-14.6l0-36.7c-0.1-0.7-0.2-3.4-0.3-4c-0.4-1.9-1.8-6.1-1.8-6.1 C168.3,160.6,206.7,121.2,257.8,113.3z"></path><path
            class="st108"
            d="M257.7,113.3c64.7-10,125.2,34.4,135.1,99.1c3.3,21.2,0.6,41.3-6.6,60l-19.4,0.1l-133.5,0.1 c-4.2-2.2-20.1-2-24-2.3c-17.2-1.4-44.7,7.3-48.1-14.6l0-36.7c-0.1-0.7-0.2-3.4-0.3-4c-0.4-1.9-1.8-6.1-1.8-6.1 C168.3,160.6,206.7,121.2,257.7,113.3z"></path><path
            class="st109"
            d="M257.7,113.3c64.6-10,125.1,34.4,135.1,99c3.3,21.2,0.6,41.4-6.6,60l-19.4,0.1l-133.4,0.1 c-4.2-2.2-20-2-23.9-2.3c-17.2-1.4-44.6,7.4-48-14.6l0-36.7c-0.1-0.7-0.2-3.4-0.3-4c-0.4-1.9-1.8-6.1-1.8-6.1 C168.2,160.6,206.6,121.2,257.7,113.3z"></path><path
            class="st110"
            d="M257.7,113.4c64.6-9.9,125.1,34.4,135,99c3.3,21.2,0.6,41.4-6.6,60l-19.4,0.1l-133.4,0.1 c-4.3-2.2-20-2.1-23.9-2.4c-17.2-1.4-44.6,7.5-48-14.6l0-36.7c-0.1-0.8-0.2-3.3-0.3-4c-0.4-1.9-1.8-6.1-1.8-6.1 C168.2,160.6,206.6,121.2,257.7,113.4z"></path><path
            class="st111"
            d="M257.6,113.4c64.6-9.9,125,34.4,135,98.9c3.3,21.2,0.6,41.4-6.6,60l-19.4,0.1l-133.3,0.1 c-4.3-2.2-19.9-2.1-23.9-2.4c-17.3-1.4-44.5,7.5-47.9-14.6l0-36.7c-0.1-0.8-0.2-3.3-0.3-4c-0.4-1.9-1.8-6.1-1.8-6.1 C168.2,160.6,206.6,121.2,257.6,113.4z"></path><path
            class="st112"
            d="M257.6,113.4c64.6-9.9,124.9,34.3,134.9,98.9c3.3,21.2,0.6,41.4-6.6,60l-19.4,0.1l-133.3,0.1 c-4.4-2.3-19.9-2.1-23.9-2.4c-17.3-1.3-44.5,7.6-47.9-14.6l0-36.7c-0.1-0.8-0.2-3.3-0.3-4c-0.4-2-1.8-6.1-1.8-6.1 C168.2,160.6,206.6,121.3,257.6,113.4z"></path><path
            class="st113"
            d="M257.5,113.4c64.5-9.9,124.9,34.3,134.8,98.8c3.3,21.2,0.6,41.4-6.7,60.1l-19.4,0.1l-133.2,0.1 c-4.4-2.3-19.8-2.1-23.9-2.4c-17.4-1.3-44.4,7.7-47.8-14.6l0-36.7c-0.1-0.8-0.2-3.3-0.3-4c-0.4-2-1.8-6.1-1.8-6.1 C168.2,160.6,206.5,121.3,257.5,113.4z"></path><path
            class="st114"
            d="M257.5,113.5c64.5-9.9,124.8,34.3,134.8,98.8c3.3,21.2,0.6,41.4-6.7,60.1l-19.4,0.1L233,272.5 c-4.4-2.3-19.8-2.2-23.9-2.5c-17.4-1.3-44.3,7.7-47.8-14.6l0-36.7c-0.1-0.8-0.2-3.3-0.3-4c-0.4-2-1.8-6.1-1.8-6.1 C168.2,160.7,206.5,121.3,257.5,113.5z"></path><path
            class="st115"
            d="M257.4,113.5c64.5-9.9,124.8,34.3,134.7,98.8c3.3,21.2,0.6,41.5-6.7,60.1l-19.4,0.1l-133.1,0.1 c-4.5-2.3-19.7-2.2-23.9-2.5c-17.4-1.2-44.3,7.8-47.7-14.6l0-36.6c-0.1-0.8-0.2-3.3-0.3-4c-0.4-2-1.7-6.1-1.7-6.1 C168.2,160.7,206.5,121.3,257.4,113.5z"></path><path
            class="st116"
            d="M257.4,113.5c64.4-9.9,124.7,34.3,134.6,98.7c3.3,21.2,0.6,41.5-6.7,60.1l-19.4,0.1l-133.1,0.1 c-4.5-2.3-19.7-2.2-23.9-2.5c-17.5-1.2-44.2,7.9-47.7-14.6l0-36.6c-0.1-0.8-0.2-3.3-0.3-4c-0.4-2-1.7-6.1-1.7-6.1 C168.2,160.7,206.4,121.4,257.4,113.5z"></path><path
            class="st117"
            d="M257.4,113.5c64.4-9.9,124.7,34.3,134.6,98.7c3.3,21.2,0.6,41.5-6.7,60.1l-19.4,0.1l-133.1,0.1 c-4.6-2.4-19.6-2.2-23.8-2.5c-17.5-1.2-44.1,8-47.6-14.5l0-36.6c-0.1-0.8-0.2-3.3-0.3-4c-0.4-2-1.7-6.1-1.7-6.1 C168.1,160.7,206.4,121.4,257.4,113.5z"></path><path
            class="st118"
            d="M257.3,113.6c64.4-9.9,124.6,34.2,134.5,98.6c3.3,21.2,0.6,41.5-6.7,60.2l-19.4,0.1l-133,0.1 c-4.6-2.4-19.6-2.3-23.8-2.5c-17.6-1.1-44.1,8-47.6-14.5l0-36.6c-0.1-0.8-0.2-3.3-0.3-4c-0.4-2.1-1.7-6.1-1.7-6.1 C168.1,160.7,206.4,121.4,257.3,113.6z"></path><path
            class="st119"
            d="M257.3,113.6c64.3-9.9,124.5,34.2,134.4,98.6c3.3,21.2,0.6,41.5-6.7,60.2l-19.3,0.1l-133,0.1 c-4.6-2.4-19.5-2.3-23.8-2.6c-17.6-1.1-44,8.1-47.5-14.5l0-36.6c-0.1-0.8-0.2-3.3-0.3-4c-0.4-2.1-1.7-6.1-1.7-6.1 C168.1,160.7,206.4,121.4,257.3,113.6z"></path><path
            class="st120"
            d="M257.2,113.6c64.3-9.9,124.5,34.2,134.4,98.5c3.3,21.2,0.6,41.6-6.7,60.2l-19.3,0.1l-132.9,0 c-4.7-2.4-19.5-2.3-23.8-2.6c-17.6-1.1-44,8.2-47.5-14.5l0-36.6c-0.1-0.8-0.2-3.3-0.3-4c-0.4-2.1-1.7-6.1-1.7-6.1 C168.1,160.7,206.3,121.4,257.2,113.6z"></path><path
            class="st121"
            d="M257.2,113.6c64.3-9.9,124.4,34.2,134.3,98.5c3.3,21.3,0.6,41.6-6.8,60.2l-19.3,0.1l-132.9,0 c-4.7-2.4-19.4-2.4-23.8-2.6c-17.7-1-43.9,8.3-47.4-14.5l0-36.6c-0.1-0.8-0.2-3.3-0.3-4c-0.4-2.1-1.7-6.1-1.7-6.1 C168.1,160.8,206.3,121.5,257.2,113.6z"></path><path
            class="st122"
            d="M257.1,113.7c64.3-9.9,124.4,34.2,134.3,98.4c3.3,21.3,0.6,41.6-6.8,60.2l-19.3,0.1l-132.8,0 c-4.8-2.5-19.4-2.4-23.8-2.6c-17.7-1-43.8,8.3-47.4-14.5l0-36.6c-0.1-0.8-0.2-3.3-0.3-4c-0.4-2.1-1.7-6.1-1.7-6.1 C168.1,160.8,206.3,121.5,257.1,113.7z"></path><path
            class="st123"
            d="M257.1,113.7c64.2-9.9,124.3,34.2,134.2,98.4c3.3,21.3,0.6,41.6-6.8,60.3l-19.3,0.1l-132.8,0 c-4.8-2.5-19.3-2.4-23.8-2.7c-17.8-1-43.8,8.4-47.3-14.5l0-36.5c-0.1-0.8-0.2-3.2-0.3-4c-0.4-2.1-1.7-6.1-1.7-6.1 C168.1,160.8,206.3,121.5,257.1,113.7z"></path><path
            class="st124"
            d="M257,113.7c64.2-9.9,124.2,34.1,134.1,98.3c3.3,21.3,0.6,41.6-6.8,60.3l-19.3,0.1l-132.7,0 c-4.8-2.5-19.3-2.4-23.8-2.7c-17.8-0.9-43.7,8.5-47.2-14.5l0-36.5c-0.1-0.8-0.2-3.2-0.3-4c-0.4-2.2-1.7-6.1-1.7-6.1 C168.1,160.8,206.2,121.5,257,113.7z"></path><path
            class="st125"
            d="M257,113.7c64.2-9.9,124.2,34.1,134.1,98.3c3.3,21.3,0.6,41.6-6.8,60.3l-19.3,0.1l-132.7,0 c-4.9-2.5-19.2-2.5-23.8-2.7c-17.9-0.9-43.7,8.5-47.2-14.5l0-36.5c-0.1-0.9-0.2-3.2-0.4-4c-0.4-2.2-1.7-6.1-1.7-6.1 C168,160.8,206.2,121.5,257,113.7z"></path><path
            class="st126"
            d="M257,113.8c64.1-9.9,124.1,34.1,134,98.2c3.3,21.3,0.6,41.7-6.8,60.3l-19.3,0.1l-132.6,0 c-4.9-2.5-19.2-2.5-23.7-2.7c-17.9-0.9-43.6,8.6-47.1-14.5l0-36.5c-0.1-0.9-0.2-3.2-0.4-4c-0.4-2.2-1.7-6.1-1.7-6.1 C168,160.8,206.2,121.6,257,113.8z"></path><path
            class="st127"
            d="M256.9,113.8C321,103.9,381,147.9,390.9,212c3.3,21.3,0.6,41.7-6.8,60.3l-19.3,0.1l-132.6,0 c-4.9-2.6-19.1-2.5-23.7-2.7c-17.9-0.9-43.5,8.7-47.1-14.4l0-36.5c-0.1-0.9-0.2-3.2-0.4-4c-0.4-2.2-1.7-6.1-1.7-6.1 C168,160.8,206.2,121.6,256.9,113.8z"></path><path
            class="st128"
            d="M256.9,113.8c64.1-9.9,124,34.1,133.9,98.1c3.3,21.3,0.6,41.7-6.9,60.4l-19.3,0.1l-132.5,0 c-5-2.6-19.1-2.6-23.7-2.8c-18-0.8-43.5,8.8-47-14.4l0-36.5c-0.1-0.9-0.2-3.2-0.4-4c-0.4-2.2-1.7-6.1-1.7-6.1 C168,160.8,206.1,121.6,256.9,113.8z"></path><path
            class="st129"
            d="M256.8,113.8c64-9.9,124,34.1,133.8,98.1c3.3,21.3,0.6,41.7-6.9,60.4l-19.3,0.1l-132.5,0 c-5-2.6-19-2.6-23.7-2.8c-18-0.8-43.4,8.8-47-14.4l0-36.5c-0.1-0.9-0.2-3.2-0.4-4c-0.4-2.3-1.7-6.1-1.7-6.1 C168,160.9,206.1,121.6,256.8,113.8z"></path><path
            class="st130"
            d="M256.8,113.9c64-9.9,123.9,34,133.7,98.1c3.3,21.3,0.6,41.7-6.9,60.4l-19.3,0.1l-132.4,0 c-5.1-2.6-19-2.6-23.7-2.8c-18.1-0.8-43.3,8.9-46.9-14.4l0-36.5c-0.1-0.9-0.2-3.2-0.4-4c-0.4-2.3-1.7-6.1-1.7-6.1 C168,160.9,206.1,121.7,256.8,113.9z"></path><path
            class="st131"
            d="M256.7,113.9c64-9.9,123.8,34,133.7,98c3.3,21.3,0.6,41.8-6.9,60.4l-19.3,0.1l-132.4,0 c-5.1-2.6-18.9-2.6-23.7-2.8c-18.1-0.7-43.3,9-46.9-14.4l0-36.4c-0.1-0.9-0.2-3.2-0.4-4c-0.4-2.3-1.7-6.1-1.7-6.1 C168,160.9,206,121.7,256.7,113.9z"></path><path
            class="st132"
            d="M256.7,113.9c64-9.8,123.8,34,133.6,98c3.3,21.3,0.5,41.8-6.9,60.4l-19.3,0.1l-132.3,0 c-5.1-2.7-18.9-2.7-23.7-2.9c-18.2-0.7-43.2,9.1-46.8-14.4l0-36.4c-0.1-0.9-0.2-3.2-0.4-4c-0.4-2.3-1.7-6.1-1.7-6.1 C168,160.9,206,121.7,256.7,113.9z"></path><path
            class="st133"
            d="M256.7,113.9c63.9-9.8,123.7,34,133.6,97.9c3.3,21.3,0.5,41.8-6.9,60.5l-19.2,0.1l-132.3,0 c-5.2-2.7-18.8-2.7-23.7-2.9c-18.2-0.7-43.2,9.1-46.8-14.4l0-36.4c-0.1-0.9-0.2-3.2-0.4-4c-0.5-2.3-1.7-6.1-1.7-6.1 C167.9,160.9,206,121.7,256.7,113.9z"></path><path
            class="st134"
            d="M256.6,113.9c63.9-9.8,123.7,34,133.5,97.9c3.3,21.3,0.5,41.8-6.9,60.5l-19.2,0.1l-132.2,0 c-5.2-2.7-18.8-2.7-23.6-2.9c-18.2-0.6-43.1,9.2-46.7-14.4l0-36.4c-0.1-0.9-0.2-3.2-0.4-4c-0.5-2.3-1.7-6.1-1.7-6.1 C167.9,160.9,206,121.7,256.6,113.9z"></path><path
            class="st135"
            d="M256.6,114c63.9-9.8,123.6,34,133.4,97.8c3.3,21.3,0.5,41.8-6.9,60.5l-19.2,0.1l-132.2,0 c-5.3-2.7-18.7-2.8-23.6-2.9c-18.3-0.6-43,9.3-46.7-14.4l0-36.4c-0.1-0.9-0.2-3.2-0.4-4c-0.5-2.4-1.7-6.1-1.7-6.1 C167.9,160.9,205.9,121.8,256.6,114z"></path><path
            class="st136"
            d="M256.5,114c63.8-9.8,123.5,33.9,133.4,97.8c3.3,21.3,0.5,41.8-7,60.5l-19.2,0.1l-132.1,0 c-5.3-2.7-18.7-2.8-23.6-2.9c-18.3-0.6-43,9.4-46.6-14.4l0-36.4c-0.1-0.9-0.2-3.2-0.4-4c-0.5-2.4-1.7-6.1-1.7-6.1 C167.9,161,205.9,121.8,256.5,114z"></path><path
            class="st137"
            d="M256.5,114c63.8-9.8,123.5,33.9,133.3,97.7c3.3,21.4,0.5,41.9-7,60.5l-19.2,0.1l-132.1,0 c-5.3-2.8-18.6-2.8-23.6-3c-18.4-0.5-42.9,9.4-46.6-14.3l0-36.4c-0.1-0.9-0.2-3.1-0.4-4c-0.5-2.4-1.7-6.1-1.7-6.1 C167.9,161,205.9,121.8,256.5,114z"></path><path
            class="st138"
            d="M256.4,114c63.8-9.8,123.4,33.9,133.2,97.7c3.3,21.4,0.5,41.9-7,60.6l-19.2,0.1l-132,0 c-5.4-2.8-18.6-2.8-23.6-3c-18.4-0.5-42.9,9.5-46.5-14.3l0-36.4c-0.1-0.9-0.2-3.1-0.4-4c-0.5-2.4-1.7-6.1-1.7-6.1 C167.9,161,205.9,121.8,256.4,114z"></path><path
            class="st139"
            d="M256.4,114.1c63.7-9.8,123.4,33.9,133.2,97.6c3.3,21.4,0.5,41.9-7,60.6l-19.2,0.1l-132,0 c-5.4-2.8-18.5-2.9-23.6-3c-18.5-0.5-42.8,9.6-46.5-14.3l0-36.4c-0.1-0.9-0.2-3.1-0.4-4c-0.5-2.4-1.7-6.1-1.7-6.1 C167.9,161,205.8,121.9,256.4,114.1z"></path><path
            class="st140"
            d="M256.4,114.1c63.7-9.8,123.3,33.9,133.1,97.6c3.3,21.4,0.5,41.9-7,60.6l-19.2,0.1l-131.9,0 c-5.5-2.8-18.5-2.9-23.6-3c-18.5-0.5-42.7,9.6-46.4-14.3l0-36.3c-0.1-1-0.2-3.1-0.4-4c-0.5-2.4-1.7-6.1-1.7-6.1 C167.9,161,205.8,121.9,256.4,114.1z"></path><path
            class="st141"
            d="M256.3,114.1c63.7-9.8,123.2,33.9,133.1,97.5c3.3,21.4,0.5,41.9-7,60.6l-19.2,0l-131.9,0 c-5.5-2.8-18.4-2.9-23.6-3c-18.6-0.4-42.7,9.7-46.4-14.3l0-36.3c-0.1-1-0.2-3.1-0.4-3.9c-0.5-2.5-1.7-6.1-1.7-6.1 C167.9,161,205.8,121.9,256.3,114.1z"></path><path
            class="st142"
            d="M256.3,114.1c63.6-9.8,123.2,33.9,133,97.5c3.3,21.4,0.5,41.9-7,60.6l-19.2,0l-131.8,0 c-5.5-2.9-18.4-3-23.5-3.1c-18.6-0.4-42.6,9.8-46.3-14.3l0-36.3c-0.1-1-0.2-3.1-0.4-3.9c-0.5-2.5-1.7-6.1-1.7-6.1 C167.8,161,205.8,121.9,256.3,114.1z"></path><path
            class="st143"
            d="M256.2,114.2c63.6-9.8,123.1,33.8,132.9,97.5c3.3,21.4,0.5,42-7,60.7l-19.2,0l-131.8,0 c-5.6-2.9-18.4-3-23.5-3.1c-18.6-0.4-42.5,9.9-46.3-14.3l0-36.3c-0.1-1-0.2-3.1-0.4-3.9c-0.5-2.5-1.7-6.1-1.7-6.1 C167.8,161,205.7,121.9,256.2,114.2z"></path><path
            class="st144"
            d="M256.2,114.2c63.6-9.8,123.1,33.8,132.9,97.4c3.3,21.4,0.5,42-7.1,60.7l-19.2,0l-131.7,0 c-5.6-2.9-18.3-3-23.5-3.1c-18.7-0.3-42.5,9.9-46.2-14.3l0-36.3c-0.1-1-0.2-3.1-0.4-3.9c-0.5-2.5-1.7-6.1-1.7-6.1 C167.8,161.1,205.7,122,256.2,114.2z"></path><path
            class="st145"
            d="M256.1,114.2c63.6-9.8,123,33.8,132.8,97.4c3.3,21.4,0.5,42-7.1,60.7l-19.2,0l-131.7,0 c-5.7-2.9-18.3-3.1-23.5-3.1c-18.7-0.3-42.4,10-46.2-14.3l0-36.3c-0.1-1-0.2-3.1-0.4-3.9c-0.5-2.5-1.7-6.1-1.7-6.1 C167.8,161.1,205.7,122,256.1,114.2z"></path><path
            class="st146"
            d="M256.1,114.2c63.5-9.8,123,33.8,132.7,97.3c3.3,21.4,0.5,42-7.1,60.7l-19.2,0l-131.6,0 c-5.7-2.9-18.2-3.1-23.5-3.2c-18.8-0.3-42.4,10.1-46.1-14.3l0-36.3c-0.1-1-0.2-3.1-0.4-3.9c-0.5-2.5-1.7-6.1-1.7-6.1 C167.8,161.1,205.6,122,256.1,114.2z"></path><path
            class="st147"
            d="M256,114.3c63.5-9.8,122.9,33.8,132.7,97.3c3.3,21.4,0.5,42-7.1,60.7l-19.1,0l-131.6,0 c-5.7-3-18.2-3.1-23.5-3.2c-18.8-0.2-42.3,10.2-46.1-14.2l0-36.3c-0.1-1-0.2-3.1-0.4-3.9c-0.5-2.6-1.7-6.1-1.7-6.1 C167.8,161.1,205.6,122,256,114.3z"></path><path
            class="st148"
            d="M256,114.3c63.5-9.8,122.8,33.8,132.6,97.2c3.3,21.4,0.5,42.1-7.1,60.8l-19.1,0l-131.5,0 c-5.8-3-18.1-3.1-23.5-3.2c-18.9-0.2-42.2,10.2-46-14.2l0-36.2c-0.1-1-0.2-3.1-0.4-3.9c-0.5-2.6-1.7-6.1-1.7-6.1 C167.8,161.1,205.6,122.1,256,114.3z"></path><path
            class="st149"
            d="M256,114.3c63.4-9.8,122.8,33.7,132.5,97.2c3.3,21.4,0.5,42.1-7.1,60.8l-19.1,0l-131.5,0 c-5.8-3-18.1-3.2-23.5-3.2c-18.9-0.2-42.2,10.3-46-14.2l0-36.2c-0.1-1-0.2-3.1-0.4-3.9c-0.5-2.6-1.7-6.1-1.7-6.1 C167.8,161.1,205.6,122.1,256,114.3z"></path><path
            class="st150"
            d="M255.9,114.3c63.4-9.8,122.7,33.7,132.5,97.1c3.3,21.4,0.5,42.1-7.1,60.8l-19.1,0l-131.4,0 c-5.8-3-18-3.2-23.4-3.2c-19-0.1-42.1,10.4-45.9-14.2l0-36.2c-0.1-1-0.2-3.1-0.4-3.9c-0.5-2.6-1.7-6.1-1.7-6.1 C167.7,161.1,205.5,122.1,255.9,114.3z"></path><path
            class="st151"
            d="M255.9,114.4c63.4-9.8,122.7,33.7,132.4,97.1c3.3,21.4,0.5,42.1-7.2,60.8l-19.1,0l-131.4,0 c-5.9-3-18-3.2-23.4-3.3c-19-0.1-42.1,10.4-45.9-14.2l0-36.2c-0.1-1-0.3-3-0.4-3.9c-0.5-2.6-1.7-6.1-1.7-6.1 C167.7,161.2,205.5,122.1,255.9,114.4z"></path><path
            class="st152"
            d="M255.8,114.4c63.3-9.8,122.6,33.7,132.4,97c3.3,21.4,0.5,42.1-7.2,60.8l-19.1,0l-131.3,0 c-5.9-3.1-17.9-3.3-23.4-3.3c-19.1-0.1-42,10.5-45.8-14.2l0-36.2c-0.1-1-0.3-3-0.4-3.9c-0.5-2.7-1.7-6.1-1.7-6.1 C167.7,161.2,205.5,122.1,255.8,114.4z"></path><path
            class="st153"
            d="M255.8,114.4c63.3-9.7,122.5,33.7,132.3,97c3.3,21.5,0.5,42.1-7.2,60.9l-19.1,0l-131.3,0 c-6-3.1-17.9-3.3-23.4-3.3c-19.1,0-41.9,10.6-45.7-14.2l0-36.2c-0.1-1-0.3-3-0.4-3.9c-0.5-2.7-1.7-6.1-1.7-6.1 C167.7,161.2,205.5,122.2,255.8,114.4z"></path><path
            class="st154"
            d="M255.7,114.4c63.3-9.7,122.5,33.7,132.2,96.9c3.3,21.5,0.5,42.2-7.2,60.9l-19.1,0l-131.2,0 c-6-3.1-17.8-3.3-23.4-3.3c-19.2,0-41.9,10.7-45.7-14.2l0-36.2c-0.1-1.1-0.3-3-0.4-3.9c-0.5-2.7-1.7-6.1-1.7-6.1 C167.7,161.2,205.4,122.2,255.7,114.4z"></path><path
            class="st155"
            d="M255.7,114.5c63.3-9.7,122.4,33.6,132.2,96.9c3.3,21.5,0.5,42.2-7.2,60.9l-19.1,0l-131.2,0 c-6-3.1-17.8-3.4-23.4-3.4c-19.2,0-41.8,10.7-45.6-14.2l0-36.2c-0.1-1.1-0.3-3-0.4-3.9c-0.5-2.7-1.7-6.1-1.7-6.1 C167.7,161.2,205.4,122.2,255.7,114.5z"></path><path
            class="st156"
            d="M255.7,114.5c63.2-9.7,122.4,33.6,132.1,96.8c3.3,21.5,0.5,42.2-7.2,60.9l-19.1,0l-131.1,0 c-6.1-3.1-17.7-3.4-23.4-3.4c-19.2,0-41.7,10.8-45.6-14.2l0-36.1c-0.1-1.1-0.3-3-0.4-3.9c-0.5-2.7-1.7-6.1-1.7-6.1 C167.7,161.2,205.4,122.2,255.7,114.5z"></path><path
            class="st157"
            d="M255.6,114.5c63.2-9.7,122.3,33.6,132,96.8c3.3,21.5,0.4,42.2-7.2,60.9l-19.1,0l-131.1,0 c-6.1-3.2-17.7-3.4-23.4-3.4c-19.3,0.1-41.7,10.9-45.5-14.1l0-36.1c-0.1-1.1-0.3-3-0.4-3.9c-0.5-2.7-1.7-6.1-1.7-6.1 C167.7,161.2,205.4,122.3,255.6,114.5z"></path><path
            class="st158"
            d="M255.6,114.5c63.2-9.7,122.2,33.6,132,96.8c3.3,21.5,0.4,42.2-7.2,61l-19.1,0l-131,0 c-6.2-3.2-17.6-3.5-23.3-3.4c-19.3,0.1-41.6,11-45.5-14.1l0-36.1c-0.1-1.1-0.3-3-0.4-3.9c-0.5-2.8-1.7-6.1-1.7-6.1 C167.6,161.2,205.3,122.3,255.6,114.5z"></path><path
            class="st159"
            d="M255.5,114.6c63.1-9.7,122.2,33.6,131.9,96.7c3.3,21.5,0.4,42.3-7.3,61l-19.1,0l-131,0 c-6.2-3.2-17.6-3.5-23.3-3.4c-19.4,0.1-41.6,11-45.4-14.1l0-36.1c-0.1-1.1-0.3-3-0.4-3.9c-0.5-2.8-1.7-6-1.7-6 C167.6,161.3,205.3,122.3,255.5,114.6z"></path><path
            class="st160"
            d="M255.5,114.6c63.1-9.7,122.1,33.6,131.8,96.7c3.3,21.5,0.4,42.3-7.3,61l-19,0l-130.9,0 c-6.2-3.2-17.5-3.5-23.3-3.5c-19.4,0.2-41.5,11.1-45.4-14.1l0-36.1c-0.1-1.1-0.3-3-0.5-3.9c-0.5-2.8-1.7-6-1.7-6 C167.6,161.3,205.3,122.3,255.5,114.6z"></path><path
            class="st161"
            d="M255.4,114.6c63.1-9.7,122.1,33.5,131.8,96.6c3.3,21.5,0.4,42.3-7.3,61l-19,0l-130.9,0 c-6.3-3.2-17.5-3.5-23.3-3.5c-19.5,0.2-41.4,11.2-45.3-14.1l0-36.1c-0.1-1.1-0.3-3-0.5-3.9c-0.5-2.8-1.7-6-1.7-6 C167.6,161.3,205.2,122.3,255.4,114.6z"></path><path
            class="st162"
            d="M255.4,114.6c63-9.7,122,33.5,131.7,96.6c3.3,21.5,0.4,42.3-7.3,61.1l-19,0l-130.9,0 c-6.3-3.3-17.4-3.6-23.3-3.5c-19.5,0.2-41.4,11.3-45.3-14.1l0-36.1c-0.1-1.1-0.3-3-0.5-3.9c-0.6-2.8-1.7-6-1.7-6 C167.6,161.3,205.2,122.4,255.4,114.6z"></path><path
            class="st163"
            d="M255.3,114.7c63-9.7,122,33.5,131.7,96.5c3.3,21.5,0.4,42.3-7.3,61.1l-19,0l-130.8,0 c-6.4-3.3-17.4-3.6-23.3-3.5c-19.6,0.3-41.3,11.3-45.2-14.1l0-36.1c-0.1-1.1-0.3-3-0.5-3.9c-0.6-2.8-1.7-6-1.7-6 C167.6,161.3,205.2,122.4,255.3,114.7z"></path><path
            class="st164"
            d="M255.3,114.7c63-9.7,121.9,33.5,131.6,96.5c3.3,21.5,0.4,42.3-7.3,61.1l-19,0l-130.8,0 c-6.4-3.3-17.3-3.6-23.3-3.6c-19.6,0.3-41.3,11.4-45.2-14.1l0-36c-0.1-1.1-0.3-2.9-0.5-3.9c-0.6-2.9-1.7-6-1.7-6 C167.6,161.3,205.2,122.4,255.3,114.7z"></path><path
            class="st165"
            d="M255.3,114.7c62.9-9.7,121.8,33.5,131.5,96.4c3.3,21.5,0.4,42.4-7.3,61.1l-19,0l-130.7,0 c-6.4-3.3-17.3-3.7-23.3-3.6c-19.7,0.3-41.2,11.5-45.1-14.1l0-36c-0.1-1.1-0.3-2.9-0.5-3.9c-0.6-2.9-1.7-6-1.7-6 C167.6,161.3,205.1,122.4,255.3,114.7z"></path><path
            class="st166"
            d="M255.2,114.7c62.9-9.7,121.8,33.5,131.5,96.4c3.3,21.5,0.4,42.4-7.3,61.1l-19,0l-130.7,0 c-6.5-3.4-17.2-3.7-23.2-3.6c-19.7,0.4-41.1,11.5-45.1-14.1l0-36c-0.1-1.1-0.3-2.9-0.5-3.9c-0.6-2.9-1.7-6-1.7-6 C167.5,161.4,205.1,122.5,255.2,114.7z"></path><path
            class="st167"
            d="M255.2,114.8c62.9-9.7,121.7,33.4,131.4,96.3c3.3,21.5,0.4,42.4-7.4,61.2l-19,0l-130.6,0 c-6.5-3.4-17.2-3.7-23.2-3.6c-19.8,0.4-41.1,11.6-45-14l0-36c-0.1-1.1-0.3-2.9-0.5-3.9c-0.6-2.9-1.7-6-1.7-6 C167.5,161.4,205.1,122.5,255.2,114.8z"></path><path
            class="st168"
            d="M255.1,114.8c62.9-9.7,121.7,33.4,131.3,96.3c3.3,21.5,0.4,42.4-7.4,61.2l-19,0l-130.6,0 c-6.5-3.4-17.1-3.8-23.2-3.6c-19.8,0.4-41,11.7-45-14l0-36c-0.1-1.1-0.3-2.9-0.5-3.9c-0.6-2.9-1.7-6-1.7-6 C167.5,161.4,205.1,122.5,255.1,114.8z"></path><path
            class="st169"
            d="M255.1,114.8c62.8-9.7,121.6,33.4,131.3,96.2c3.3,21.6,0.4,42.4-7.4,61.2l-19,0l-130.5,0 c-6.6-3.4-17.1-3.8-23.2-3.7c-19.9,0.4-41,11.8-44.9-14l0-36c-0.1-1.2-0.3-2.9-0.5-3.9c-0.6-3-1.7-6-1.7-6 C167.5,161.4,205,122.5,255.1,114.8z"></path><path
            class="st170"
            d="M255,114.8c62.8-9.7,121.5,33.4,131.2,96.2c3.3,21.6,0.4,42.4-7.4,61.2l-19,0l-130.5,0 c-6.6-3.4-17-3.8-23.2-3.7c-19.9,0.5-40.9,11.8-44.9-14l0-36c-0.1-1.2-0.3-2.9-0.5-3.9c-0.6-3-1.7-6-1.7-6 C167.5,161.4,205,122.5,255,114.8z"></path><path
            class="st171"
            d="M255,114.9c62.8-9.7,121.5,33.4,131.2,96.2c3.3,21.6,0.4,42.5-7.4,61.2l-19,0l-130.4,0 c-6.7-3.5-17-3.9-23.2-3.7c-20,0.5-40.8,11.9-44.8-14l0-36c-0.1-1.2-0.3-2.9-0.5-3.9c-0.6-3-1.7-6-1.7-6 C167.5,161.4,205,122.6,255,114.9z"></path><path
            class="st172"
            d="M255,114.9c62.7-9.7,121.4,33.4,131.1,96.1c3.3,21.6,0.4,42.5-7.4,61.3l-19,0l-130.4,0 c-6.7-3.5-16.9-3.9-23.2-3.7c-20,0.5-40.8,12-44.8-14l0-35.9c-0.1-1.2-0.3-2.9-0.5-3.9c-0.6-3-1.7-6-1.7-6 C167.5,161.4,205,122.6,255,114.9z"></path><path
            class="st173"
            d="M254.9,114.9c62.7-9.7,121.4,33.4,131,96.1c3.3,21.6,0.4,42.5-7.4,61.3l-19,0l-130.3,0 c-6.7-3.5-16.9-3.9-23.2-3.7c-20.1,0.6-40.7,12.1-44.7-14l0-35.9c-0.1-1.2-0.3-2.9-0.5-3.9c-0.6-3-1.7-6-1.7-6 C167.5,161.4,204.9,122.6,254.9,114.9z"></path><path
            class="st174"
            d="M254.9,114.9c62.7-9.7,121.3,33.3,131,96c3.3,21.6,0.4,42.5-7.5,61.3l-18.9,0l-130.3,0 c-6.8-3.5-16.9-4-23.1-3.8c-20.1,0.6-40.6,12.1-44.7-14l0-35.9c-0.1-1.2-0.3-2.9-0.5-3.9c-0.6-3-1.7-6-1.7-6 C167.4,161.5,204.9,122.6,254.9,114.9z"></path><path
            class="st175"
            d="M254.8,115c62.6-9.6,121.3,33.3,130.9,96c3.3,21.6,0.4,42.5-7.5,61.3l-18.9,0l-130.2,0 c-6.8-3.5-16.8-4-23.1-3.8c-20.2,0.6-40.6,12.2-44.6-14l0-35.9c-0.1-1.2-0.3-2.9-0.5-3.9c-0.6-3.1-1.6-6-1.6-6 C167.4,161.5,204.9,122.7,254.8,115z"></path><path
            class="st176"
            d="M254.8,115c62.6-9.6,121.2,33.3,130.8,95.9c3.3,21.6,0.4,42.6-7.5,61.3l-18.9,0l-130.2,0 c-6.9-3.6-16.8-4-23.1-3.8c-20.2,0.7-40.5,12.3-44.6-14l0-35.9c-0.1-1.2-0.3-2.9-0.5-3.9c-0.6-3.1-1.6-6-1.6-6 C167.4,161.5,204.8,122.7,254.8,115z"></path><path
            class="st177"
            d="M254.7,115c62.6-9.6,121.1,33.3,130.8,95.9c3.3,21.6,0.4,42.6-7.5,61.4l-18.9,0l-130.1,0 c-6.9-3.6-16.7-4.1-23.1-3.8c-20.3,0.7-40.5,12.3-44.5-13.9l0-35.9c-0.1-1.2-0.3-2.9-0.5-3.9c-0.6-3.1-1.6-6-1.6-6 C167.4,161.5,204.8,122.7,254.7,115z"></path><path
            class="st178"
            d="M254.7,115c62.6-9.6,121.1,33.3,130.7,95.8c3.3,21.6,0.4,42.6-7.5,61.4l-18.9,0l-130.1,0 c-6.9-3.6-16.7-4.1-23.1-3.9c-20.3,0.7-40.4,12.4-44.5-13.9l0-35.9c-0.1-1.2-0.3-2.8-0.5-3.9c-0.6-3.1-1.6-6-1.6-6 C167.4,161.5,204.8,122.7,254.7,115z"></path><path
            class="st179"
            d="M254.7,115.1c62.5-9.6,121,33.3,130.6,95.8c3.3,21.6,0.4,42.6-7.5,61.4l-18.9,0l-130,0 c-7-3.6-16.6-4.1-23.1-3.9c-20.4,0.8-40.3,12.5-44.4-13.9l0-35.9c-0.1-1.2-0.3-2.8-0.5-3.9c-0.6-3.1-1.6-6-1.6-6 C167.4,161.5,204.8,122.7,254.7,115.1z"></path><path
            class="st180"
            d="M254.6,115.1c62.5-9.6,121,33.2,130.6,95.7c3.3,21.6,0.4,42.6-7.5,61.4l-18.9,0l-130,0 c-7-3.6-16.6-4.2-23.1-3.9c-20.4,0.8-40.3,12.6-44.4-13.9l0-35.9c-0.1-1.2-0.3-2.8-0.5-3.9c-0.6-3.1-1.6-6-1.6-6 C167.4,161.5,204.7,122.8,254.6,115.1z"></path><path
            class="st181"
            d="M254.6,115.1c62.5-9.6,120.9,33.2,130.5,95.7c3.3,21.6,0.4,42.6-7.5,61.4l-18.9,0l-129.9,0 c-7.1-3.7-16.5-4.2-23.1-3.9c-20.5,0.8-40.2,12.6-44.3-13.9l0-35.8c-0.1-1.2-0.3-2.8-0.5-3.9c-0.6-3.2-1.6-6-1.6-6 C167.4,161.6,204.7,122.8,254.6,115.1z"></path><path
            class="st182"
            d="M254.5,115.1c62.4-9.6,120.8,33.2,130.5,95.6c3.3,21.6,0.4,42.7-7.6,61.5l-18.9,0l-129.9,0 c-7.1-3.7-16.5-4.2-23.1-3.9c-20.5,0.9-40.2,12.7-44.2-13.9l0-35.8c-0.1-1.2-0.3-2.8-0.5-3.9c-0.6-3.2-1.6-6-1.6-6 C167.3,161.6,204.7,122.8,254.5,115.1z"></path><path
            class="st183"
            d="M254.5,115.2c62.4-9.6,120.8,33.2,130.4,95.6c3.3,21.6,0.3,42.7-7.6,61.5l-18.9,0l-129.8,0 c-7.1-3.7-16.4-4.3-23-4c-20.6,0.9-40.1,12.8-44.2-13.9l0-35.8c-0.1-1.2-0.3-2.8-0.5-3.9c-0.6-3.2-1.6-6-1.6-6 C167.3,161.6,204.7,122.8,254.5,115.2z"></path><path
            class="st184"
            d="M254.4,115.2c62.4-9.6,120.7,33.2,130.3,95.5c3.3,21.6,0.3,42.7-7.6,61.5l-18.9,0l-129.8,0 c-7.2-3.7-16.4-4.3-23-4c-20.6,0.9-40,12.9-44.1-13.9l0-35.8c-0.1-1.3-0.3-2.8-0.5-3.9c-0.6-3.2-1.6-6-1.6-6 C167.3,161.6,204.6,122.8,254.4,115.2z"></path><path
            class="st185"
            d="M254.4,115.2c62.3-9.6,120.7,33.2,130.3,95.5c3.3,21.7,0.3,42.7-7.6,61.5l-18.9,0l-129.7,0 c-7.2-3.7-16.3-4.3-23-4c-20.7,0.9-40,12.9-44.1-13.9l0-35.8c-0.1-1.3-0.3-2.8-0.5-3.9c-0.6-3.2-1.6-6-1.6-6 C167.3,161.6,204.6,122.9,254.4,115.2z"></path><path
            class="st186"
            d="M254.3,115.2c62.3-9.6,120.6,33.1,130.2,95.5c3.3,21.7,0.3,42.7-7.6,61.5l-18.9,0l-129.7,0 c-7.2-3.8-16.3-4.3-23-4c-20.7,1-39.9,13-44-13.9l0-35.8c-0.1-1.3-0.3-2.8-0.5-3.9c-0.6-3.2-1.6-6-1.6-6 C167.3,161.6,204.6,122.9,254.3,115.2z"></path><path
            class="st187"
            d="M254.3,115.3c62.3-9.6,120.5,33.1,130.1,95.4c3.3,21.7,0.3,42.8-7.6,61.6l-18.9,0l-129.6,0 c-7.3-3.8-16.2-4.4-23-4.1c-20.8,1-39.8,13.1-44-13.8l0-35.8c-0.1-1.3-0.3-2.8-0.5-3.9c-0.6-3.3-1.6-6-1.6-6 C167.3,161.6,204.6,122.9,254.3,115.3z"></path><path
            class="st188"
            d="M254.3,115.3c62.3-9.6,120.5,33.1,130.1,95.4c3.3,21.7,0.3,42.8-7.6,61.6l-18.8,0l-129.6,0 c-7.3-3.8-16.2-4.4-23-4.1c-20.8,1-39.8,13.2-43.9-13.8l0-35.8c-0.1-1.3-0.3-2.8-0.5-3.9c-0.6-3.3-1.6-6-1.6-6 C167.3,161.6,204.5,122.9,254.3,115.3z"></path><path
            class="st189"
            d="M254.2,115.3c62.2-9.6,120.4,33.1,130,95.3c3.3,21.7,0.3,42.8-7.7,61.6l-18.8,0l-129.5,0 c-7.4-3.8-16.1-4.4-23-4.1c-20.9,1.1-39.7,13.2-43.9-13.8l0-35.7c-0.1-1.3-0.3-2.8-0.5-3.9c-0.6-3.3-1.6-6-1.6-6 C167.3,161.7,204.5,123,254.2,115.3z"></path><path
            class="st190"
            d="M254.2,115.3c62.2-9.6,120.4,33.1,129.9,95.3c3.3,21.7,0.3,42.8-7.7,61.6l-18.8,0l-129.5,0 c-7.4-3.8-16.1-4.5-23-4.1c-20.9,1.1-39.7,13.3-43.8-13.8l0-35.7c-0.1-1.3-0.3-2.8-0.5-3.9c-0.6-3.3-1.6-6-1.6-6 C167.3,161.7,204.5,123,254.2,115.3z"></path><path
            class="st191"
            d="M254.1,115.4c62.2-9.6,120.3,33.1,129.9,95.2c3.3,21.7,0.3,42.8-7.7,61.6l-18.8,0l-129.4,0 c-7.4-3.9-16-4.5-22.9-4.1c-21,1.1-39.6,13.4-43.8-13.8l0-35.7c-0.1-1.3-0.3-2.8-0.5-3.9c-0.6-3.3-1.6-6-1.6-6 C167.2,161.7,204.4,123,254.1,115.4z"></path><path
            class="st192"
            d="M254.1,115.4c62.1-9.6,120.3,33,129.8,95.2c3.3,21.7,0.3,42.8-7.7,61.7l-18.8,0l-129.4,0 c-7.5-3.9-16-4.5-22.9-4.2c-21,1.2-39.5,13.4-43.7-13.8l0-35.7c-0.1-1.3-0.3-2.7-0.5-3.9c-0.7-3.4-1.6-6-1.6-6 C167.2,161.7,204.4,123,254.1,115.4z"></path><path
            class="st193"
            d="M254,115.4c62.1-9.6,120.2,33,129.8,95.1c3.3,21.7,0.3,42.9-7.7,61.7l-18.8,0l-129.3,0 c-7.5-3.9-15.9-4.6-22.9-4.2c-21.1,1.2-39.5,13.5-43.7-13.8l0-35.7c-0.1-1.3-0.3-2.7-0.5-3.9c-0.7-3.4-1.6-6-1.6-6 C167.2,161.7,204.4,123,254,115.4z"></path><path
            class="st194"
            d="M254,115.4c62.1-9.6,120.1,33,129.7,95.1c3.3,21.7,0.3,42.9-7.7,61.7l-18.8,0l-129.3,0 c-7.6-3.9-15.9-4.6-22.9-4.2c-21.1,1.2-39.4,13.6-43.6-13.8l0-35.7c-0.1-1.3-0.3-2.7-0.5-3.9c-0.7-3.4-1.6-6-1.6-6 C167.2,161.7,204.4,123.1,254,115.4z"></path><path
            class="st195"
            d="M254,115.5c62-9.6,120.1,33,129.6,95c3.3,21.7,0.3,42.9-7.7,61.7l-18.8,0l-129.2,0 c-7.6-3.9-15.8-4.6-22.9-4.2c-21.2,1.3-39.4,13.7-43.6-13.8l0-35.7c-0.1-1.3-0.3-2.7-0.5-3.9c-0.7-3.4-1.6-6-1.6-6 C167.2,161.7,204.3,123.1,254,115.5z"></path><path
            class="st196"
            d="M253.9,115.5c62-9.5,120,33,129.6,95c3.3,21.7,0.3,42.9-7.7,61.7l-18.8,0l-129.2,0 c-7.6-4-15.8-4.7-22.9-4.3c-21.3,1.3-39.3,13.7-43.5-13.8l0-35.7c-0.1-1.3-0.3-2.7-0.6-3.9c-0.7-3.4-1.6-6-1.6-6 C167.2,161.8,204.3,123.1,253.9,115.5z"></path><path
            class="st197"
            d="M253.9,115.5c62-9.5,120,33,129.5,94.9c3.3,21.7,0.3,42.9-7.8,61.8l-18.8,0l-129.1,0 c-7.7-4-15.7-4.7-22.9-4.3c-21.3,1.3-39.2,13.8-43.5-13.7l0-35.6c-0.1-1.3-0.3-2.7-0.6-3.9c-0.7-3.4-1.6-6-1.6-6 C167.2,161.8,204.3,123.1,253.9,115.5z"></path><path
            class="st198"
            d="M253.8,115.5c61.9-9.5,119.9,32.9,129.4,94.9c3.3,21.7,0.3,43-7.8,61.8l-18.8,0l-129.1,0 c-7.7-4-15.7-4.7-22.9-4.3c-21.4,1.3-39.2,13.9-43.4-13.7l0-35.6c-0.1-1.4-0.3-2.7-0.6-3.9c-0.7-3.5-1.6-6-1.6-6 C167.2,161.8,204.3,123.2,253.8,115.5z"></path><path
            class="st199"
            d="M253.8,115.6c61.9-9.5,119.8,32.9,129.4,94.9c3.3,21.7,0.3,43-7.8,61.8l-18.8,0l-129,0 c-7.8-4-15.7-4.8-22.8-4.3c-21.4,1.4-39.1,14-43.4-13.7l0-35.6c-0.1-1.4-0.3-2.7-0.6-3.9c-0.7-3.5-1.6-6-1.6-6 C167.1,161.8,204.2,123.2,253.8,115.6z"></path><path
            class="st200"
            d="M253.7,115.6c61.9-9.5,119.8,32.9,129.3,94.8c3.3,21.7,0.3,43-7.8,61.8l-18.8,0l-129,0 c-7.8-4-15.6-4.8-22.8-4.3c-21.5,1.4-39,14-43.3-13.7l0-35.6c-0.1-1.4-0.3-2.7-0.6-3.9c-0.7-3.5-1.6-6-1.6-6 C167.1,161.8,204.2,123.2,253.7,115.6z"></path><path
            class="st201"
            d="M161.4,254.1v-35.6c-0.5-5.4-2.2-9.8-2.2-9.8c7.9-46.8,45-85.4,94.5-93c61.9-9.5,119.7,32.9,129.3,94.8 c3.3,21.7,0.3,43-7.8,61.8l-147.7-0.1C196.4,256.1,167.1,291.3,161.4,254.1z"></path></g>
        <path class="st202"
              d="M225.2,272.2c-19.5,0-37.7,9-37.7,9c-1.3-1.6-2.4-3.1-3.5-4.8c-8.2-12.5-19-10.2-22.6-22.3l-0.5-41 c1.2-4.6,3.1-9.7,5.7-15.5c25.9-57.3,93.2-82.7,150.5-56.9c51,23,76.8,79,63.5,131.5L225.2,272.2z"></path>
        <linearGradient id="SVGID_2_" gradientUnits="userSpaceOnUse" x1="185.7981" y1="147.2614" x2="294.3473"
                        y2="303.9176"><stop offset="3.535691e-02" style="stop-color:#63C2FF"></stop>
            <stop offset="0.1148" style="stop-color:#6CB3FE"></stop>
            <stop offset="0.2664" style="stop-color:#838DFA"></stop>
            <stop offset="0.4534" style="stop-color:#A456F4"></stop>
            <stop offset="0.6854" style="stop-color:#7448EE"></stop>
            <stop offset="1" style="stop-color:#2E34E6"></stop></linearGradient>
        <path class="st203"
              d="M380.7,272.2v-5c0-43-30.9-79.1-73.8-79.1h-71.8c-39.5,0-71.3,30.8-73.8,69.1c-0.2,3.3-0.2,39.6,0,43 c0,0,13.4-12.7,28.9-19.7c17-7.7,36.9-8.3,36.9-8.3L380.7,272.2z"></path>
        <g><path class="st204" d="M264,126.7c0,0,15.4-4.7,19.2-19.2c1.4-5.4,4.2-10.3,8.5-13.9c4.6-3.9,10.4-4.9,15.6-7.6c6.8-3.6,12.3-9.3,14.3-16.9 c4.5-17,19.2-19.2,19.2-19.2L371.1,80c0,0-14.7,2.2-19.2,19.2c-2,7.5-7.5,13.3-14.3,16.9c-5.3,2.8-11,3.7-15.6,7.6 c-4.3,3.6-7.1,8.6-8.5,13.9c-3.8,14.5-19.2,19.2-19.2,19.2L264,126.7z"></path>
            <g><path class="st205" d="M296.4,138.4c-0.8,0-1.6,0.1-2.3,0.4c-3.9-8.1-12.1-13.6-21.7-13.6c-9.5,0-17.8,5.6-21.7,13.6 c-0.7-0.3-1.5-0.4-2.3-0.4c-3.9,0-7,3.1-7,7c0,3.9,3.1,7,7,7c0.1,0,0.1,0,0.2,0c1.6,11.7,11.6,20.8,23.8,20.8 c12.2,0,22.2-9,23.8-20.8c0.1,0,0.1,0,0.2,0c3.9,0,7-3.1,7-7C303.4,141.5,300.3,138.4,296.4,138.4z"></path></g>
            <g><path d="M277,144.6l0,3.6c0,0.9,0.7,1.6,1.6,1.6l0,0c0.9,0,1.6-0.7,1.6-1.6l0-3.6c0-0.9-0.7-1.6-1.6-1.6l0,0 C277.8,142.9,277,143.7,277,144.6z"></path>
                <path d="M262.5,144.6l0,3.6c0,0.9,0.7,1.6,1.6,1.6l0,0c0.9,0,1.6-0.7,1.6-1.6l0-3.6c0-0.9-0.7-1.6-1.6-1.6l0,0 C263.3,142.9,262.5,143.7,262.5,144.6z"></path></g></g>
        <g><g><path class="st211" d="M161.4,300.2v-81.2c0-15.7-12.7-28.4-28.4-28.4h-19.6"></path><path class="st211"
                                                                                                       d="M65.4,189.9c0,0.2,0,0.4,0,0.6l0,0c0,12,2.2,23.5,6.2,34.1"></path><path
                class="st211" d="M89.4,189.9c0,0.2,0,0.4,0,0.6l0,0c0,12.4,3.1,24.1,8.7,34.3"></path><path class="st211"
                                                                                                          d="M89.4,189.9c0-6.6-5.4-12-12-12s-12,5.4-12,12"></path><path
                class="st211" d="M113.4,190.5c0-6.6-5.4-12.6-12-12.6s-12,5.4-12,12"></path><path class="st211"
                                                                                                 d="M65.4,189.9c0-6.6-5.4-12-12-12s-12,5.4-12,12"></path><path
                class="st212" d="M41.4,189.9c0,0.2,0,0.4,0,0.6l0,0c0,31.7,12.3,60.6,32.4,82v94.7"></path></g></g>
        <g><path class="st211" d="M169.2,132.8l-15.8-17.5c0-5,0-13.8,0-27.5c0-21.2-15.6-38.7-36-41.6V38c0-3.3-2.7-6-6-6c-3.3,0-6,2.7-6,6 v8.1c-20.4,2.9-36,20.4-36,41.6c0,8.2,0,20.6,0,27.5l-15.8,17.5c-2.9,3.2-0.6,8.4,3.7,8.4h108.2 C169.8,141.1,172.1,136,169.2,132.8z"></path>
            <path class="st211" d="M133.2,141.1c0,12.1-9.8,21.9-21.9,21.9s-21.9-9.8-21.9-21.9H133.2z"></path>
            <circle class="st207" cx="146.4" cy="63.9" r="16"></circle></g>
        <g><defs><path id="SVGID_9_" d="M380.7,267.2c0,0,0,1.3,0,10.1s-54,113-54,113L111,387.3c0,0,27.9-120.1,94.8-126.7 C272.7,254,380.7,267.2,380.7,267.2z"></path></defs>
            <clipPath id="SVGID_5_"><use xlink:href="#SVGID_9_" style="overflow:visible;"></use></clipPath>
            <g class="st208"><line class="st212" x1="380.5" y1="272.2" x2="229.4" y2="272.1"></line>
                <line class="st212" x1="205.8" y1="367.2" x2="319.9" y2="367.2"></line>
                <path class="st212" d="M229.4,320.1L229.4,320.1c-26.5,0-48,21.5-48,48v0"></path>
                <path class="st212" d="M229.4,296.1L229.4,296.1c-39.8,0-72,32.2-72,72v0"></path>
                <path class="st212" d="M229.4,272.1L229.4,272.1c-53,0-96,43-96,96v0"></path>
                <path class="st212" d="M157.4,367.2c0,6.6-5.4,12-12,12s-12-5.4-12-12"></path>
                <path class="st212" d="M181.5,367.2c0,6.6-5.4,12-12,12s-12-5.4-12-12"></path>
                <path class="st212" d="M205.8,367.2c0,6.6-5.4,12-12,12s-12-5.4-12-12"></path></g></g></g>
    <g id="Layer_2"></g></svg>
